<svg xmlns="http://www.w3.org/2000/svg" width="1100" height="754"><rect width="100%" height="100%" fill="white"/>
<g font-family="sans-serif" font-size="12">
<text x="20" y="28" font-size="20">B2 / TypeScript clean first-window ratios</text>
<text x="20" y="50">Same-campaign medians; logarithmic axis; one row per compilation source.</text>
<line x1="340.0" x2="340.0" y1="70" y2="734" stroke="#dddddd"/>
<text x="328.0" y="66">1×</text>
<line x1="640.0" x2="640.0" y1="70" y2="734" stroke="#dddddd"/>
<text x="628.0" y="66">2×</text>
<line x1="940.0" x2="940.0" y1="70" y2="734" stroke="#dddddd"/>
<text x="928.0" y="66">4×</text>
<text x="20" y="96">test-map-set-ops</text>
<line x1="340.0" x2="822.4545705348789" y1="92" y2="92" stroke="#176b99"/>
<circle cx="822.4545705348789" cy="92" r="4" fill="#176b99"/>
<text x="830.4545705348789" y="96">3.049×</text>
<text x="20" y="124">mandelbrot-grid</text>
<line x1="340.0" x2="772.4707368991192" y1="120" y2="120" stroke="#176b99"/>
<circle cx="772.4707368991192" cy="120" r="4" fill="#176b99"/>
<text x="780.4707368991192" y="124">2.716×</text>
<text x="20" y="152">mandelbrot</text>
<line x1="340.0" x2="767.9555821534781" y1="148" y2="148" stroke="#176b99"/>
<circle cx="767.9555821534781" cy="148" r="4" fill="#176b99"/>
<text x="775.9555821534781" y="152">2.688×</text>
<text x="20" y="180">raytrace-active</text>
<line x1="340.0" x2="755.2601354787755" y1="176" y2="176" stroke="#176b99"/>
<circle cx="755.2601354787755" cy="176" r="4" fill="#176b99"/>
<text x="763.2601354787755" y="180">2.610×</text>
<text x="20" y="208">record-aggregation</text>
<line x1="340.0" x2="753.6010704179993" y1="204" y2="204" stroke="#176b99"/>
<circle cx="753.6010704179993" cy="204" r="4" fill="#176b99"/>
<text x="761.6010704179993" y="208">2.600×</text>
<text x="20" y="236">raytrace</text>
<line x1="340.0" x2="746.8427725262346" y1="232" y2="232" stroke="#176b99"/>
<circle cx="746.8427725262346" cy="232" r="4" fill="#176b99"/>
<text x="754.8427725262346" y="236">2.560×</text>
<text x="20" y="264">test-morning-program</text>
<line x1="340.0" x2="745.8520756114535" y1="260" y2="260" stroke="#176b99"/>
<circle cx="745.8520756114535" cy="260" r="4" fill="#176b99"/>
<text x="753.8520756114535" y="264">2.554×</text>
<text x="20" y="292">list-pipeline</text>
<line x1="340.0" x2="744.1662121350817" y1="288" y2="288" stroke="#176b99"/>
<circle cx="744.1662121350817" cy="288" r="4" fill="#176b99"/>
<text x="752.1662121350817" y="292">2.544×</text>
<text x="20" y="320">symreg</text>
<line x1="340.0" x2="743.06369766945" y1="316" y2="316" stroke="#176b99"/>
<circle cx="743.06369766945" cy="316" r="4" fill="#176b99"/>
<text x="751.06369766945" y="320">2.538×</text>
<text x="20" y="348">editdist</text>
<line x1="340.0" x2="736.7252445980935" y1="344" y2="344" stroke="#176b99"/>
<circle cx="736.7252445980935" cy="344" r="4" fill="#176b99"/>
<text x="744.7252445980935" y="348">2.501×</text>
<text x="20" y="376">unicode-text</text>
<line x1="340.0" x2="732.7745499063894" y1="372" y2="372" stroke="#176b99"/>
<circle cx="732.7745499063894" cy="372" r="4" fill="#176b99"/>
<text x="740.7745499063894" y="376">2.478×</text>
<text x="20" y="404">local-row</text>
<line x1="340.0" x2="731.8930916768641" y1="400" y2="400" stroke="#176b99"/>
<circle cx="731.8930916768641" cy="400" r="4" fill="#176b99"/>
<text x="739.8930916768641" y="404">2.473×</text>
<text x="20" y="432">lexer</text>
<line x1="340.0" x2="731.4306287234001" y1="428" y2="428" stroke="#176b99"/>
<circle cx="731.4306287234001" cy="428" r="4" fill="#176b99"/>
<text x="739.4306287234001" y="432">2.470×</text>
<text x="20" y="460">tree-bitonic</text>
<line x1="340.0" x2="730.6744364449542" y1="456" y2="456" stroke="#176b99"/>
<circle cx="730.6744364449542" cy="456" r="4" fill="#176b99"/>
<text x="738.6744364449542" y="460">2.466×</text>
<text x="20" y="488">test-evening-program</text>
<line x1="340.0" x2="723.5945163833346" y1="484" y2="484" stroke="#176b99"/>
<circle cx="723.5945163833346" cy="484" r="4" fill="#176b99"/>
<text x="731.5945163833346" y="488">2.426×</text>
<text x="20" y="516">bst</text>
<line x1="340.0" x2="716.1416515425074" y1="512" y2="512" stroke="#176b99"/>
<circle cx="716.1416515425074" cy="512" r="4" fill="#176b99"/>
<text x="724.1416515425074" y="516">2.385×</text>
<text x="20" y="544">scalar-region</text>
<line x1="340.0" x2="711.3074868381416" y1="540" y2="540" stroke="#176b99"/>
<circle cx="711.3074868381416" cy="540" r="4" fill="#176b99"/>
<text x="719.3074868381416" y="544">2.358×</text>
<text x="20" y="572">map-churn</text>
<line x1="340.0" x2="705.6371751088465" y1="568" y2="568" stroke="#176b99"/>
<circle cx="705.6371751088465" cy="568" r="4" fill="#176b99"/>
<text x="713.6371751088465" y="572">2.328×</text>
<text x="20" y="600">expression</text>
<line x1="340.0" x2="699.6778261608149" y1="596" y2="596" stroke="#176b99"/>
<circle cx="699.6778261608149" cy="596" r="4" fill="#176b99"/>
<text x="707.6778261608149" y="600">2.296×</text>
<text x="20" y="628">test-rle-roundtrip</text>
<line x1="340.0" x2="689.1644753287505" y1="624" y2="624" stroke="#176b99"/>
<circle cx="689.1644753287505" cy="624" r="4" fill="#176b99"/>
<text x="697.1644753287505" y="628">2.241×</text>
<text x="20" y="656">closures</text>
<line x1="340.0" x2="688.382007621799" y1="652" y2="652" stroke="#176b99"/>
<circle cx="688.382007621799" cy="652" r="4" fill="#176b99"/>
<text x="696.382007621799" y="656">2.237×</text>
<text x="20" y="684">local-fold</text>
<line x1="340.0" x2="675.2345798317388" y1="680" y2="680" stroke="#176b99"/>
<circle cx="675.2345798317388" cy="680" r="4" fill="#176b99"/>
<text x="683.2345798317388" y="684">2.170×</text>
<text x="20" y="712">numeric-recurrence</text>
<line x1="340.0" x2="661.6844249673711" y1="708" y2="708" stroke="#176b99"/>
<circle cx="661.6844249673711" cy="708" r="4" fill="#176b99"/>
<text x="669.6844249673711" y="712">2.103×</text>
</g></svg>
