<svg xmlns="http://www.w3.org/2000/svg" width="1200" height="1379" viewBox="0 0 1200 1379">
<rect width="100%" height="100%" fill="white"/><g font-family="sans-serif" font-size="12">
<text x="20" y="28" font-size="20">First-window stages across all 23 compilation inputs</text>
<text x="20" y="52">One fresh diagnostic observation per role; exclusive wall time (ms). TS reach/code generation remains one coarse js_lib interval.</text>
<text x="20" y="97">test-map-set-ops</text>
<text x="212" y="96">B2</text>
<rect x="240.000" y="85" width="29.430" height="14" fill="#999999"><title>Import / API load: 101.484668 ms</title></rect>
<rect x="269.430" y="85" width="55.068" height="14" fill="#b18fbd"><title>Cache / identity: 189.893839 ms</title></rect>
<rect x="324.498" y="85" width="112.847" height="14" fill="#74a6b6"><title>Source loading: 389.134328 ms</title></rect>
<rect x="437.345" y="85" width="177.305" height="14" fill="#de996b"><title>Check + completion: 611.407190 ms</title></rect>
<rect x="614.650" y="85" width="404.443" height="14" fill="#547d98"><title>Reach + code generation: 1394.654310 ms</title></rect>
<rect x="1019.093" y="85" width="0.907" height="14" fill="#dddddd"><title>Request residual: 3.127068 ms</title></rect>
<text x="1026.000" y="96">2690</text>
<text x="212" y="114">TS</text>
<rect x="240.000" y="103" width="80.606" height="14" fill="#999999"><title>Import / API load: 277.956764 ms</title></rect>
<rect x="320.606" y="103" width="0.000" height="14" fill="#b18fbd"><title>Cache / identity: 0.000000 ms</title></rect>
<rect x="320.606" y="103" width="45.862" height="14" fill="#74a6b6"><title>Source loading: 158.146349 ms</title></rect>
<rect x="366.468" y="103" width="48.986" height="14" fill="#de996b"><title>Check + completion: 168.920019 ms</title></rect>
<rect x="415.454" y="103" width="84.416" height="14" fill="#547d98"><title>Reach + code generation: 291.094792 ms</title></rect>
<rect x="499.870" y="103" width="0.075" height="14" fill="#dddddd"><title>Request residual: 0.258404 ms</title></rect>
<text x="505.945" y="114">896</text>
<text x="20" y="150">test-evening-program</text>
<text x="212" y="149">B2</text>
<rect x="240.000" y="138" width="29.419" height="14" fill="#999999"><title>Import / API load: 101.445808 ms</title></rect>
<rect x="269.419" y="138" width="55.030" height="14" fill="#b18fbd"><title>Cache / identity: 189.760791 ms</title></rect>
<rect x="324.448" y="138" width="78.552" height="14" fill="#74a6b6"><title>Source loading: 270.875030 ms</title></rect>
<rect x="403.001" y="138" width="180.701" height="14" fill="#de996b"><title>Check + completion: 623.117441 ms</title></rect>
<rect x="583.702" y="138" width="295.926" height="14" fill="#547d98"><title>Reach + code generation: 1020.451195 ms</title></rect>
<rect x="879.628" y="138" width="0.809" height="14" fill="#dddddd"><title>Request residual: 2.789165 ms</title></rect>
<text x="886.436" y="149">2208</text>
<text x="212" y="167">TS</text>
<rect x="240.000" y="156" width="78.335" height="14" fill="#999999"><title>Import / API load: 270.124346 ms</title></rect>
<rect x="318.335" y="156" width="0.000" height="14" fill="#b18fbd"><title>Cache / identity: 0.000000 ms</title></rect>
<rect x="318.335" y="156" width="44.471" height="14" fill="#74a6b6"><title>Source loading: 153.352547 ms</title></rect>
<rect x="362.806" y="156" width="48.013" height="14" fill="#de996b"><title>Check + completion: 165.564453 ms</title></rect>
<rect x="410.819" y="156" width="100.312" height="14" fill="#547d98"><title>Reach + code generation: 345.910107 ms</title></rect>
<rect x="511.131" y="156" width="0.071" height="14" fill="#dddddd"><title>Request residual: 0.245151 ms</title></rect>
<text x="517.202" y="167">935</text>
<text x="20" y="203">raytrace-active</text>
<text x="212" y="202">B2</text>
<rect x="240.000" y="191" width="29.529" height="14" fill="#999999"><title>Import / API load: 101.825510 ms</title></rect>
<rect x="269.529" y="191" width="54.986" height="14" fill="#b18fbd"><title>Cache / identity: 189.610929 ms</title></rect>
<rect x="324.515" y="191" width="148.525" height="14" fill="#74a6b6"><title>Source loading: 512.163119 ms</title></rect>
<rect x="473.040" y="191" width="210.514" height="14" fill="#de996b"><title>Check + completion: 725.923292 ms</title></rect>
<rect x="683.554" y="191" width="174.682" height="14" fill="#547d98"><title>Reach + code generation: 602.361772 ms</title></rect>
<rect x="858.236" y="191" width="0.792" height="14" fill="#dddddd"><title>Request residual: 2.731591 ms</title></rect>
<text x="865.028" y="202">2135</text>
<text x="212" y="220">TS</text>
<rect x="240.000" y="209" width="78.484" height="14" fill="#999999"><title>Import / API load: 270.640857 ms</title></rect>
<rect x="318.484" y="209" width="0.000" height="14" fill="#b18fbd"><title>Cache / identity: 0.000000 ms</title></rect>
<rect x="318.484" y="209" width="46.669" height="14" fill="#74a6b6"><title>Source loading: 160.930251 ms</title></rect>
<rect x="365.153" y="209" width="50.174" height="14" fill="#de996b"><title>Check + completion: 173.015645 ms</title></rect>
<rect x="415.327" y="209" width="62.397" height="14" fill="#547d98"><title>Reach + code generation: 215.166528 ms</title></rect>
<rect x="477.724" y="209" width="0.076" height="14" fill="#dddddd"><title>Request residual: 0.262748 ms</title></rect>
<text x="483.801" y="220">820</text>
<text x="20" y="256">raytrace</text>
<text x="212" y="255">B2</text>
<rect x="240.000" y="244" width="29.695" height="14" fill="#999999"><title>Import / API load: 102.399398 ms</title></rect>
<rect x="269.695" y="244" width="55.010" height="14" fill="#b18fbd"><title>Cache / identity: 189.694026 ms</title></rect>
<rect x="324.706" y="244" width="152.285" height="14" fill="#74a6b6"><title>Source loading: 525.128100 ms</title></rect>
<rect x="476.990" y="244" width="202.406" height="14" fill="#de996b"><title>Check + completion: 697.964696 ms</title></rect>
<rect x="679.396" y="244" width="175.472" height="14" fill="#547d98"><title>Reach + code generation: 605.087374 ms</title></rect>
<rect x="854.869" y="244" width="0.805" height="14" fill="#dddddd"><title>Request residual: 2.774261 ms</title></rect>
<text x="861.673" y="255">2123</text>
<text x="212" y="273">TS</text>
<rect x="240.000" y="262" width="77.794" height="14" fill="#999999"><title>Import / API load: 268.259369 ms</title></rect>
<rect x="317.794" y="262" width="0.000" height="14" fill="#b18fbd"><title>Cache / identity: 0.000000 ms</title></rect>
<rect x="317.794" y="262" width="46.374" height="14" fill="#74a6b6"><title>Source loading: 159.911782 ms</title></rect>
<rect x="364.167" y="262" width="51.771" height="14" fill="#de996b"><title>Check + completion: 178.524670 ms</title></rect>
<rect x="415.939" y="262" width="66.829" height="14" fill="#547d98"><title>Reach + code generation: 230.448266 ms</title></rect>
<rect x="482.768" y="262" width="0.085" height="14" fill="#dddddd"><title>Request residual: 0.291859 ms</title></rect>
<text x="488.852" y="273">837</text>
<text x="20" y="309">record-aggregation</text>
<text x="212" y="308">B2</text>
<rect x="240.000" y="297" width="29.462" height="14" fill="#999999"><title>Import / API load: 101.596270 ms</title></rect>
<rect x="269.462" y="297" width="55.122" height="14" fill="#b18fbd"><title>Cache / identity: 190.079067 ms</title></rect>
<rect x="324.584" y="297" width="91.510" height="14" fill="#74a6b6"><title>Source loading: 315.555925 ms</title></rect>
<rect x="416.094" y="297" width="188.943" height="14" fill="#de996b"><title>Check + completion: 651.538034 ms</title></rect>
<rect x="605.037" y="297" width="218.433" height="14" fill="#547d98"><title>Reach + code generation: 753.228676 ms</title></rect>
<rect x="823.469" y="297" width="0.858" height="14" fill="#dddddd"><title>Request residual: 2.958055 ms</title></rect>
<text x="830.327" y="308">2015</text>
<text x="212" y="326">TS</text>
<rect x="240.000" y="315" width="77.905" height="14" fill="#999999"><title>Import / API load: 268.642004 ms</title></rect>
<rect x="317.905" y="315" width="0.000" height="14" fill="#b18fbd"><title>Cache / identity: 0.000000 ms</title></rect>
<rect x="317.905" y="315" width="42.816" height="14" fill="#74a6b6"><title>Source loading: 147.642297 ms</title></rect>
<rect x="360.720" y="315" width="47.389" height="14" fill="#de996b"><title>Check + completion: 163.411830 ms</title></rect>
<rect x="408.109" y="315" width="53.818" height="14" fill="#547d98"><title>Reach + code generation: 185.582186 ms</title></rect>
<rect x="461.927" y="315" width="0.070" height="14" fill="#dddddd"><title>Request residual: 0.241323 ms</title></rect>
<text x="467.997" y="326">766</text>
<text x="20" y="362">map-churn</text>
<text x="212" y="361">B2</text>
<rect x="240.000" y="350" width="29.524" height="14" fill="#999999"><title>Import / API load: 101.808932 ms</title></rect>
<rect x="269.524" y="350" width="54.746" height="14" fill="#b18fbd"><title>Cache / identity: 188.783654 ms</title></rect>
<rect x="324.270" y="350" width="88.299" height="14" fill="#74a6b6"><title>Source loading: 304.483329 ms</title></rect>
<rect x="412.569" y="350" width="187.836" height="14" fill="#de996b"><title>Check + completion: 647.722797 ms</title></rect>
<rect x="600.405" y="350" width="207.988" height="14" fill="#547d98"><title>Reach + code generation: 717.211096 ms</title></rect>
<rect x="808.393" y="350" width="0.799" height="14" fill="#dddddd"><title>Request residual: 2.756810 ms</title></rect>
<text x="815.193" y="361">1963</text>
<text x="212" y="379">TS</text>
<rect x="240.000" y="368" width="77.918" height="14" fill="#999999"><title>Import / API load: 268.686204 ms</title></rect>
<rect x="317.918" y="368" width="0.000" height="14" fill="#b18fbd"><title>Cache / identity: 0.000000 ms</title></rect>
<rect x="317.918" y="368" width="42.976" height="14" fill="#74a6b6"><title>Source loading: 148.196133 ms</title></rect>
<rect x="360.894" y="368" width="47.999" height="14" fill="#de996b"><title>Check + completion: 165.517160 ms</title></rect>
<rect x="408.893" y="368" width="54.001" height="14" fill="#547d98"><title>Reach + code generation: 186.213808 ms</title></rect>
<rect x="462.894" y="368" width="0.071" height="14" fill="#dddddd"><title>Request residual: 0.243459 ms</title></rect>
<text x="468.965" y="379">769</text>
<text x="20" y="415">test-morning-program</text>
<text x="212" y="414">B2</text>
<rect x="240.000" y="403" width="29.486" height="14" fill="#999999"><title>Import / API load: 101.676605 ms</title></rect>
<rect x="269.486" y="403" width="54.994" height="14" fill="#b18fbd"><title>Cache / identity: 189.639449 ms</title></rect>
<rect x="324.480" y="403" width="91.520" height="14" fill="#74a6b6"><title>Source loading: 315.591899 ms</title></rect>
<rect x="416.000" y="403" width="187.076" height="14" fill="#de996b"><title>Check + completion: 645.100897 ms</title></rect>
<rect x="603.076" y="403" width="198.119" height="14" fill="#547d98"><title>Reach + code generation: 683.179906 ms</title></rect>
<rect x="801.195" y="403" width="0.814" height="14" fill="#dddddd"><title>Request residual: 2.806370 ms</title></rect>
<text x="808.009" y="414">1938</text>
<text x="212" y="432">TS</text>
<rect x="240.000" y="421" width="77.806" height="14" fill="#999999"><title>Import / API load: 268.301442 ms</title></rect>
<rect x="317.806" y="421" width="0.000" height="14" fill="#b18fbd"><title>Cache / identity: 0.000000 ms</title></rect>
<rect x="317.806" y="421" width="44.344" height="14" fill="#74a6b6"><title>Source loading: 152.913810 ms</title></rect>
<rect x="362.150" y="421" width="48.551" height="14" fill="#de996b"><title>Check + completion: 167.418853 ms</title></rect>
<rect x="410.701" y="421" width="63.160" height="14" fill="#547d98"><title>Reach + code generation: 217.798534 ms</title></rect>
<rect x="473.861" y="421" width="0.078" height="14" fill="#dddddd"><title>Request residual: 0.269835 ms</title></rect>
<text x="479.940" y="432">807</text>
<text x="20" y="468">list-pipeline</text>
<text x="212" y="467">B2</text>
<rect x="240.000" y="456" width="29.288" height="14" fill="#999999"><title>Import / API load: 100.994013 ms</title></rect>
<rect x="269.288" y="456" width="55.213" height="14" fill="#b18fbd"><title>Cache / identity: 190.391233 ms</title></rect>
<rect x="324.500" y="456" width="94.399" height="14" fill="#74a6b6"><title>Source loading: 325.520496 ms</title></rect>
<rect x="418.900" y="456" width="187.090" height="14" fill="#de996b"><title>Check + completion: 645.149895 ms</title></rect>
<rect x="605.990" y="456" width="182.332" height="14" fill="#547d98"><title>Reach + code generation: 628.740873 ms</title></rect>
<rect x="788.322" y="456" width="0.777" height="14" fill="#dddddd"><title>Request residual: 2.680615 ms</title></rect>
<text x="795.099" y="467">1893</text>
<text x="212" y="485">TS</text>
<rect x="240.000" y="474" width="77.615" height="14" fill="#999999"><title>Import / API load: 267.643859 ms</title></rect>
<rect x="317.615" y="474" width="0.000" height="14" fill="#b18fbd"><title>Cache / identity: 0.000000 ms</title></rect>
<rect x="317.615" y="474" width="43.608" height="14" fill="#74a6b6"><title>Source loading: 150.373891 ms</title></rect>
<rect x="361.223" y="474" width="47.927" height="14" fill="#de996b"><title>Check + completion: 165.266847 ms</title></rect>
<rect x="409.150" y="474" width="50.652" height="14" fill="#547d98"><title>Reach + code generation: 174.664682 ms</title></rect>
<rect x="459.802" y="474" width="0.072" height="14" fill="#dddddd"><title>Request residual: 0.247160 ms</title></rect>
<text x="465.873" y="485">758</text>
<text x="20" y="521">mandelbrot-grid</text>
<text x="212" y="520">B2</text>
<rect x="240.000" y="509" width="29.397" height="14" fill="#999999"><title>Import / API load: 101.370169 ms</title></rect>
<rect x="269.397" y="509" width="56.002" height="14" fill="#b18fbd"><title>Cache / identity: 193.114191 ms</title></rect>
<rect x="325.399" y="509" width="120.694" height="14" fill="#74a6b6"><title>Source loading: 416.194036 ms</title></rect>
<rect x="446.093" y="509" width="200.338" height="14" fill="#de996b"><title>Check + completion: 690.833831 ms</title></rect>
<rect x="646.432" y="509" width="135.456" height="14" fill="#547d98"><title>Reach + code generation: 467.098851 ms</title></rect>
<rect x="781.888" y="509" width="0.757" height="14" fill="#dddddd"><title>Request residual: 2.610992 ms</title></rect>
<text x="788.645" y="520">1871</text>
<text x="212" y="538">TS</text>
<rect x="240.000" y="527" width="78.423" height="14" fill="#999999"><title>Import / API load: 270.429269 ms</title></rect>
<rect x="318.423" y="527" width="0.000" height="14" fill="#b18fbd"><title>Cache / identity: 0.000000 ms</title></rect>
<rect x="318.423" y="527" width="44.420" height="14" fill="#74a6b6"><title>Source loading: 153.175069 ms</title></rect>
<rect x="362.843" y="527" width="48.183" height="14" fill="#de996b"><title>Check + completion: 166.149672 ms</title></rect>
<rect x="411.026" y="527" width="25.152" height="14" fill="#547d98"><title>Reach + code generation: 86.731103 ms</title></rect>
<rect x="436.177" y="527" width="0.074" height="14" fill="#dddddd"><title>Request residual: 0.255788 ms</title></rect>
<text x="442.251" y="538">677</text>
<text x="20" y="574">unicode-text</text>
<text x="212" y="573">B2</text>
<rect x="240.000" y="562" width="33.925" height="14" fill="#999999"><title>Import / API load: 116.983964 ms</title></rect>
<rect x="273.925" y="562" width="61.551" height="14" fill="#b18fbd"><title>Cache / identity: 212.248112 ms</title></rect>
<rect x="335.476" y="562" width="115.791" height="14" fill="#74a6b6"><title>Source loading: 399.284509 ms</title></rect>
<rect x="451.266" y="562" width="202.332" height="14" fill="#de996b"><title>Check + completion: 697.707805 ms</title></rect>
<rect x="653.598" y="562" width="115.898" height="14" fill="#547d98"><title>Reach + code generation: 399.656329 ms</title></rect>
<rect x="769.496" y="562" width="1.742" height="14" fill="#dddddd"><title>Request residual: 6.008460 ms</title></rect>
<text x="777.239" y="573">1832</text>
<text x="212" y="591">TS</text>
<rect x="240.000" y="580" width="83.411" height="14" fill="#999999"><title>Import / API load: 287.629203 ms</title></rect>
<rect x="323.411" y="580" width="0.000" height="14" fill="#b18fbd"><title>Cache / identity: 0.000000 ms</title></rect>
<rect x="323.411" y="580" width="48.390" height="14" fill="#74a6b6"><title>Source loading: 166.865204 ms</title></rect>
<rect x="371.801" y="580" width="51.746" height="14" fill="#de996b"><title>Check + completion: 178.435834 ms</title></rect>
<rect x="423.547" y="580" width="26.363" height="14" fill="#547d98"><title>Reach + code generation: 90.908279 ms</title></rect>
<rect x="449.910" y="580" width="0.073" height="14" fill="#dddddd"><title>Request residual: 0.252553 ms</title></rect>
<text x="455.983" y="591">724</text>
<text x="20" y="627">mandelbrot</text>
<text x="212" y="626">B2</text>
<rect x="240.000" y="615" width="29.473" height="14" fill="#999999"><title>Import / API load: 101.631604 ms</title></rect>
<rect x="269.473" y="615" width="55.034" height="14" fill="#b18fbd"><title>Cache / identity: 189.776437 ms</title></rect>
<rect x="324.507" y="615" width="115.436" height="14" fill="#74a6b6"><title>Source loading: 398.061481 ms</title></rect>
<rect x="439.943" y="615" width="188.450" height="14" fill="#de996b"><title>Check + completion: 649.838762 ms</title></rect>
<rect x="628.393" y="615" width="134.462" height="14" fill="#547d98"><title>Reach + code generation: 463.671710 ms</title></rect>
<rect x="762.855" y="615" width="0.746" height="14" fill="#dddddd"><title>Request residual: 2.572294 ms</title></rect>
<text x="769.601" y="626">1806</text>
<text x="212" y="644">TS</text>
<rect x="240.000" y="633" width="78.503" height="14" fill="#999999"><title>Import / API load: 270.704823 ms</title></rect>
<rect x="318.503" y="633" width="0.000" height="14" fill="#b18fbd"><title>Cache / identity: 0.000000 ms</title></rect>
<rect x="318.503" y="633" width="44.249" height="14" fill="#74a6b6"><title>Source loading: 152.586759 ms</title></rect>
<rect x="362.752" y="633" width="47.002" height="14" fill="#de996b"><title>Check + completion: 162.078269 ms</title></rect>
<rect x="409.754" y="633" width="23.601" height="14" fill="#547d98"><title>Reach + code generation: 81.382566 ms</title></rect>
<rect x="433.355" y="633" width="0.080" height="14" fill="#dddddd"><title>Request residual: 0.277039 ms</title></rect>
<text x="439.435" y="644">667</text>
<text x="20" y="680">local-row</text>
<text x="212" y="679">B2</text>
<rect x="240.000" y="668" width="29.194" height="14" fill="#999999"><title>Import / API load: 100.671206 ms</title></rect>
<rect x="269.194" y="668" width="55.164" height="14" fill="#b18fbd"><title>Cache / identity: 190.224458 ms</title></rect>
<rect x="324.358" y="668" width="111.177" height="14" fill="#74a6b6"><title>Source loading: 383.374588 ms</title></rect>
<rect x="435.535" y="668" width="186.082" height="14" fill="#de996b"><title>Check + completion: 641.673003 ms</title></rect>
<rect x="621.617" y="668" width="94.114" height="14" fill="#547d98"><title>Reach + code generation: 324.535052 ms</title></rect>
<rect x="715.731" y="668" width="0.762" height="14" fill="#dddddd"><title>Request residual: 2.626369 ms</title></rect>
<text x="722.492" y="679">1643</text>
<text x="212" y="697">TS</text>
<rect x="240.000" y="686" width="77.659" height="14" fill="#999999"><title>Import / API load: 267.793464 ms</title></rect>
<rect x="317.659" y="686" width="0.000" height="14" fill="#b18fbd"><title>Cache / identity: 0.000000 ms</title></rect>
<rect x="317.659" y="686" width="44.004" height="14" fill="#74a6b6"><title>Source loading: 151.739129 ms</title></rect>
<rect x="361.662" y="686" width="48.433" height="14" fill="#de996b"><title>Check + completion: 167.012965 ms</title></rect>
<rect x="410.095" y="686" width="19.847" height="14" fill="#547d98"><title>Reach + code generation: 68.439930 ms</title></rect>
<rect x="429.943" y="686" width="0.073" height="14" fill="#dddddd"><title>Request residual: 0.250887 ms</title></rect>
<text x="436.015" y="697">655</text>
<text x="20" y="733">lexer</text>
<text x="212" y="732">B2</text>
<rect x="240.000" y="721" width="29.378" height="14" fill="#999999"><title>Import / API load: 101.306048 ms</title></rect>
<rect x="269.378" y="721" width="55.013" height="14" fill="#b18fbd"><title>Cache / identity: 189.704834 ms</title></rect>
<rect x="324.392" y="721" width="113.901" height="14" fill="#74a6b6"><title>Source loading: 392.769881 ms</title></rect>
<rect x="438.293" y="721" width="186.215" height="14" fill="#de996b"><title>Check + completion: 642.133279 ms</title></rect>
<rect x="624.508" y="721" width="89.833" height="14" fill="#547d98"><title>Reach + code generation: 309.774740 ms</title></rect>
<rect x="714.342" y="721" width="0.743" height="14" fill="#dddddd"><title>Request residual: 2.561187 ms</title></rect>
<text x="721.084" y="732">1638</text>
<text x="212" y="750">TS</text>
<rect x="240.000" y="739" width="78.668" height="14" fill="#999999"><title>Import / API load: 271.271967 ms</title></rect>
<rect x="318.668" y="739" width="0.000" height="14" fill="#b18fbd"><title>Cache / identity: 0.000000 ms</title></rect>
<rect x="318.668" y="739" width="45.106" height="14" fill="#74a6b6"><title>Source loading: 155.541638 ms</title></rect>
<rect x="363.774" y="739" width="47.286" height="14" fill="#de996b"><title>Check + completion: 163.059241 ms</title></rect>
<rect x="411.060" y="739" width="16.106" height="14" fill="#547d98"><title>Reach + code generation: 55.538910 ms</title></rect>
<rect x="427.166" y="739" width="0.075" height="14" fill="#dddddd"><title>Request residual: 0.258765 ms</title></rect>
<text x="433.241" y="750">646</text>
<text x="20" y="786">symreg</text>
<text x="212" y="785">B2</text>
<rect x="240.000" y="774" width="29.350" height="14" fill="#999999"><title>Import / API load: 101.208728 ms</title></rect>
<rect x="269.350" y="774" width="54.918" height="14" fill="#b18fbd"><title>Cache / identity: 189.374148 ms</title></rect>
<rect x="324.268" y="774" width="107.636" height="14" fill="#74a6b6"><title>Source loading: 371.165603 ms</title></rect>
<rect x="431.904" y="774" width="187.511" height="14" fill="#de996b"><title>Check + completion: 646.599060 ms</title></rect>
<rect x="619.414" y="774" width="92.354" height="14" fill="#547d98"><title>Reach + code generation: 318.468106 ms</title></rect>
<rect x="711.768" y="774" width="0.769" height="14" fill="#dddddd"><title>Request residual: 2.650451 ms</title></rect>
<text x="718.537" y="785">1629</text>
<text x="212" y="803">TS</text>
<rect x="240.000" y="792" width="78.286" height="14" fill="#999999"><title>Import / API load: 269.954878 ms</title></rect>
<rect x="318.286" y="792" width="0.000" height="14" fill="#b18fbd"><title>Cache / identity: 0.000000 ms</title></rect>
<rect x="318.286" y="792" width="44.484" height="14" fill="#74a6b6"><title>Source loading: 153.396266 ms</title></rect>
<rect x="362.770" y="792" width="46.833" height="14" fill="#de996b"><title>Check + completion: 161.494993 ms</title></rect>
<rect x="409.602" y="792" width="13.325" height="14" fill="#547d98"><title>Reach + code generation: 45.947738 ms</title></rect>
<rect x="422.927" y="792" width="0.070" height="14" fill="#dddddd"><title>Request residual: 0.241888 ms</title></rect>
<text x="428.997" y="803">631</text>
<text x="20" y="839">editdist</text>
<text x="212" y="838">B2</text>
<rect x="240.000" y="827" width="29.731" height="14" fill="#999999"><title>Import / API load: 102.523424 ms</title></rect>
<rect x="269.731" y="827" width="54.704" height="14" fill="#b18fbd"><title>Cache / identity: 188.637612 ms</title></rect>
<rect x="324.435" y="827" width="106.380" height="14" fill="#74a6b6"><title>Source loading: 366.833066 ms</title></rect>
<rect x="430.815" y="827" width="187.842" height="14" fill="#de996b"><title>Check + completion: 647.741762 ms</title></rect>
<rect x="618.657" y="827" width="91.653" height="14" fill="#547d98"><title>Reach + code generation: 316.049766 ms</title></rect>
<rect x="710.310" y="827" width="0.735" height="14" fill="#dddddd"><title>Request residual: 2.535652 ms</title></rect>
<text x="717.045" y="838">1624</text>
<text x="212" y="856">TS</text>
<rect x="240.000" y="845" width="77.782" height="14" fill="#999999"><title>Import / API load: 268.217535 ms</title></rect>
<rect x="317.782" y="845" width="0.000" height="14" fill="#b18fbd"><title>Cache / identity: 0.000000 ms</title></rect>
<rect x="317.782" y="845" width="44.185" height="14" fill="#74a6b6"><title>Source loading: 152.363822 ms</title></rect>
<rect x="361.966" y="845" width="47.820" height="14" fill="#de996b"><title>Check + completion: 164.900879 ms</title></rect>
<rect x="409.787" y="845" width="16.756" height="14" fill="#547d98"><title>Reach + code generation: 57.778885 ms</title></rect>
<rect x="426.543" y="845" width="0.077" height="14" fill="#dddddd"><title>Request residual: 0.265348 ms</title></rect>
<text x="432.619" y="856">644</text>
<text x="20" y="892">expression</text>
<text x="212" y="891">B2</text>
<rect x="240.000" y="880" width="32.541" height="14" fill="#999999"><title>Import / API load: 112.211971 ms</title></rect>
<rect x="272.541" y="880" width="60.789" height="14" fill="#b18fbd"><title>Cache / identity: 209.619302 ms</title></rect>
<rect x="333.329" y="880" width="95.405" height="14" fill="#74a6b6"><title>Source loading: 328.987155 ms</title></rect>
<rect x="428.734" y="880" width="209.514" height="14" fill="#de996b"><title>Check + completion: 722.473841 ms</title></rect>
<rect x="638.248" y="880" width="54.509" height="14" fill="#547d98"><title>Reach + code generation: 187.966088 ms</title></rect>
<rect x="692.757" y="880" width="0.719" height="14" fill="#dddddd"><title>Request residual: 2.478332 ms</title></rect>
<text x="699.476" y="891">1564</text>
<text x="212" y="909">TS</text>
<rect x="240.000" y="898" width="83.873" height="14" fill="#999999"><title>Import / API load: 289.221035 ms</title></rect>
<rect x="323.873" y="898" width="0.000" height="14" fill="#b18fbd"><title>Cache / identity: 0.000000 ms</title></rect>
<rect x="323.873" y="898" width="47.220" height="14" fill="#74a6b6"><title>Source loading: 162.829523 ms</title></rect>
<rect x="371.092" y="898" width="51.786" height="14" fill="#de996b"><title>Check + completion: 178.574983 ms</title></rect>
<rect x="422.878" y="898" width="5.807" height="14" fill="#547d98"><title>Reach + code generation: 20.024331 ms</title></rect>
<rect x="428.685" y="898" width="0.069" height="14" fill="#dddddd"><title>Request residual: 0.236441 ms</title></rect>
<text x="434.754" y="909">651</text>
<text x="20" y="945">tree-bitonic</text>
<text x="212" y="944">B2</text>
<rect x="240.000" y="933" width="29.422" height="14" fill="#999999"><title>Import / API load: 101.455756 ms</title></rect>
<rect x="269.422" y="933" width="55.078" height="14" fill="#b18fbd"><title>Cache / identity: 189.928191 ms</title></rect>
<rect x="324.500" y="933" width="104.603" height="14" fill="#74a6b6"><title>Source loading: 360.706186 ms</title></rect>
<rect x="429.103" y="933" width="184.832" height="14" fill="#de996b"><title>Check + completion: 637.363941 ms</title></rect>
<rect x="613.935" y="933" width="77.539" height="14" fill="#547d98"><title>Reach + code generation: 267.379276 ms</title></rect>
<rect x="691.474" y="933" width="0.753" height="14" fill="#dddddd"><title>Request residual: 2.596266 ms</title></rect>
<text x="698.227" y="944">1559</text>
<text x="212" y="962">TS</text>
<rect x="240.000" y="951" width="77.530" height="14" fill="#999999"><title>Import / API load: 267.350007 ms</title></rect>
<rect x="317.530" y="951" width="0.000" height="14" fill="#b18fbd"><title>Cache / identity: 0.000000 ms</title></rect>
<rect x="317.530" y="951" width="43.717" height="14" fill="#74a6b6"><title>Source loading: 150.750072 ms</title></rect>
<rect x="361.247" y="951" width="47.994" height="14" fill="#de996b"><title>Check + completion: 165.499944 ms</title></rect>
<rect x="409.241" y="951" width="10.971" height="14" fill="#547d98"><title>Reach + code generation: 37.833256 ms</title></rect>
<rect x="420.213" y="951" width="0.076" height="14" fill="#dddddd"><title>Request residual: 0.262157 ms</title></rect>
<text x="426.289" y="962">622</text>
<text x="20" y="998">test-rle-roundtrip</text>
<text x="212" y="997">B2</text>
<rect x="240.000" y="986" width="29.464" height="14" fill="#999999"><title>Import / API load: 101.602296 ms</title></rect>
<rect x="269.464" y="986" width="54.795" height="14" fill="#b18fbd"><title>Cache / identity: 188.952093 ms</title></rect>
<rect x="324.259" y="986" width="95.977" height="14" fill="#74a6b6"><title>Source loading: 330.961885 ms</title></rect>
<rect x="420.237" y="986" width="187.938" height="14" fill="#de996b"><title>Check + completion: 648.072955 ms</title></rect>
<rect x="608.175" y="986" width="68.447" height="14" fill="#547d98"><title>Reach + code generation: 236.028346 ms</title></rect>
<rect x="676.622" y="986" width="0.749" height="14" fill="#dddddd"><title>Request residual: 2.584409 ms</title></rect>
<text x="683.371" y="997">1508</text>
<text x="212" y="1015">TS</text>
<rect x="240.000" y="1004" width="78.146" height="14" fill="#999999"><title>Import / API load: 269.473377 ms</title></rect>
<rect x="318.146" y="1004" width="0.000" height="14" fill="#b18fbd"><title>Cache / identity: 0.000000 ms</title></rect>
<rect x="318.146" y="1004" width="44.074" height="14" fill="#74a6b6"><title>Source loading: 151.981403 ms</title></rect>
<rect x="362.220" y="1004" width="47.065" height="14" fill="#de996b"><title>Check + completion: 162.295464 ms</title></rect>
<rect x="409.285" y="1004" width="10.938" height="14" fill="#547d98"><title>Reach + code generation: 37.716337 ms</title></rect>
<rect x="420.222" y="1004" width="0.070" height="14" fill="#dddddd"><title>Request residual: 0.240867 ms</title></rect>
<text x="426.292" y="1015">622</text>
<text x="20" y="1051">bst</text>
<text x="212" y="1050">B2</text>
<rect x="240.000" y="1039" width="29.378" height="14" fill="#999999"><title>Import / API load: 101.305796 ms</title></rect>
<rect x="269.378" y="1039" width="54.912" height="14" fill="#b18fbd"><title>Cache / identity: 189.356366 ms</title></rect>
<rect x="324.291" y="1039" width="94.668" height="14" fill="#74a6b6"><title>Source loading: 326.447910 ms</title></rect>
<rect x="418.959" y="1039" width="186.112" height="14" fill="#de996b"><title>Check + completion: 641.777429 ms</title></rect>
<rect x="605.071" y="1039" width="71.515" height="14" fill="#547d98"><title>Reach + code generation: 246.608236 ms</title></rect>
<rect x="676.586" y="1039" width="0.744" height="14" fill="#dddddd"><title>Request residual: 2.564651 ms</title></rect>
<text x="683.330" y="1050">1508</text>
<text x="212" y="1068">TS</text>
<rect x="240.000" y="1057" width="78.105" height="14" fill="#999999"><title>Import / API load: 269.332734 ms</title></rect>
<rect x="318.105" y="1057" width="0.000" height="14" fill="#b18fbd"><title>Cache / identity: 0.000000 ms</title></rect>
<rect x="318.105" y="1057" width="43.778" height="14" fill="#74a6b6"><title>Source loading: 150.961665 ms</title></rect>
<rect x="361.883" y="1057" width="48.881" height="14" fill="#de996b"><title>Check + completion: 168.557847 ms</title></rect>
<rect x="410.764" y="1057" width="11.227" height="14" fill="#547d98"><title>Reach + code generation: 38.714821 ms</title></rect>
<rect x="421.991" y="1057" width="0.072" height="14" fill="#dddddd"><title>Request residual: 0.248406 ms</title></rect>
<text x="428.063" y="1068">628</text>
<text x="20" y="1104">scalar-region</text>
<text x="212" y="1103">B2</text>
<rect x="240.000" y="1092" width="29.281" height="14" fill="#999999"><title>Import / API load: 100.969566 ms</title></rect>
<rect x="269.281" y="1092" width="55.461" height="14" fill="#b18fbd"><title>Cache / identity: 191.249187 ms</title></rect>
<rect x="324.742" y="1092" width="87.878" height="14" fill="#74a6b6"><title>Source loading: 303.032793 ms</title></rect>
<rect x="412.620" y="1092" width="185.447" height="14" fill="#de996b"><title>Check + completion: 639.484172 ms</title></rect>
<rect x="598.067" y="1092" width="65.942" height="14" fill="#547d98"><title>Reach + code generation: 227.389185 ms</title></rect>
<rect x="664.009" y="1092" width="0.749" height="14" fill="#dddddd"><title>Request residual: 2.581564 ms</title></rect>
<text x="670.758" y="1103">1465</text>
<text x="212" y="1121">TS</text>
<rect x="240.000" y="1110" width="78.066" height="14" fill="#999999"><title>Import / API load: 269.196753 ms</title></rect>
<rect x="318.066" y="1110" width="0.000" height="14" fill="#b18fbd"><title>Cache / identity: 0.000000 ms</title></rect>
<rect x="318.066" y="1110" width="43.062" height="14" fill="#74a6b6"><title>Source loading: 148.493485 ms</title></rect>
<rect x="361.128" y="1110" width="47.334" height="14" fill="#de996b"><title>Check + completion: 163.223047 ms</title></rect>
<rect x="408.462" y="1110" width="9.220" height="14" fill="#547d98"><title>Reach + code generation: 31.792726 ms</title></rect>
<rect x="417.682" y="1110" width="0.070" height="14" fill="#dddddd"><title>Request residual: 0.242512 ms</title></rect>
<text x="423.752" y="1121">613</text>
<text x="20" y="1157">closures</text>
<text x="212" y="1156">B2</text>
<rect x="240.000" y="1145" width="29.719" height="14" fill="#999999"><title>Import / API load: 102.479630 ms</title></rect>
<rect x="269.719" y="1145" width="55.375" height="14" fill="#b18fbd"><title>Cache / identity: 190.950754 ms</title></rect>
<rect x="325.093" y="1145" width="84.966" height="14" fill="#74a6b6"><title>Source loading: 292.989752 ms</title></rect>
<rect x="410.059" y="1145" width="189.480" height="14" fill="#de996b"><title>Check + completion: 653.391671 ms</title></rect>
<rect x="599.539" y="1145" width="30.635" height="14" fill="#547d98"><title>Reach + code generation: 105.639338 ms</title></rect>
<rect x="630.174" y="1145" width="0.741" height="14" fill="#dddddd"><title>Request residual: 2.556938 ms</title></rect>
<text x="636.916" y="1156">1348</text>
<text x="212" y="1174">TS</text>
<rect x="240.000" y="1163" width="77.454" height="14" fill="#999999"><title>Import / API load: 267.086959 ms</title></rect>
<rect x="317.454" y="1163" width="0.000" height="14" fill="#b18fbd"><title>Cache / identity: 0.000000 ms</title></rect>
<rect x="317.454" y="1163" width="42.692" height="14" fill="#74a6b6"><title>Source loading: 147.215367 ms</title></rect>
<rect x="360.146" y="1163" width="48.836" height="14" fill="#de996b"><title>Check + completion: 168.402596 ms</title></rect>
<rect x="408.982" y="1163" width="5.962" height="14" fill="#547d98"><title>Reach + code generation: 20.559433 ms</title></rect>
<rect x="414.944" y="1163" width="0.074" height="14" fill="#dddddd"><title>Request residual: 0.254120 ms</title></rect>
<text x="421.017" y="1174">604</text>
<text x="20" y="1210">local-fold</text>
<text x="212" y="1209">B2</text>
<rect x="240.000" y="1198" width="29.398" height="14" fill="#999999"><title>Import / API load: 101.375745 ms</title></rect>
<rect x="269.398" y="1198" width="55.251" height="14" fill="#b18fbd"><title>Cache / identity: 190.525630 ms</title></rect>
<rect x="324.650" y="1198" width="66.405" height="14" fill="#74a6b6"><title>Source loading: 228.986004 ms</title></rect>
<rect x="391.055" y="1198" width="186.133" height="14" fill="#de996b"><title>Check + completion: 641.849274 ms</title></rect>
<rect x="577.188" y="1198" width="41.425" height="14" fill="#547d98"><title>Reach + code generation: 142.845812 ms</title></rect>
<rect x="618.612" y="1198" width="0.749" height="14" fill="#dddddd"><title>Request residual: 2.583578 ms</title></rect>
<text x="625.362" y="1209">1308</text>
<text x="212" y="1227">TS</text>
<rect x="240.000" y="1216" width="77.844" height="14" fill="#999999"><title>Import / API load: 268.431007 ms</title></rect>
<rect x="317.844" y="1216" width="0.000" height="14" fill="#b18fbd"><title>Cache / identity: 0.000000 ms</title></rect>
<rect x="317.844" y="1216" width="42.535" height="14" fill="#74a6b6"><title>Source loading: 146.673916 ms</title></rect>
<rect x="360.378" y="1216" width="47.953" height="14" fill="#de996b"><title>Check + completion: 165.359618 ms</title></rect>
<rect x="408.332" y="1216" width="6.942" height="14" fill="#547d98"><title>Reach + code generation: 23.937053 ms</title></rect>
<rect x="415.273" y="1216" width="0.068" height="14" fill="#dddddd"><title>Request residual: 0.235158 ms</title></rect>
<text x="421.342" y="1227">605</text>
<text x="20" y="1263">numeric-recurrence</text>
<text x="212" y="1262">B2</text>
<rect x="240.000" y="1251" width="29.371" height="14" fill="#999999"><title>Import / API load: 101.281902 ms</title></rect>
<rect x="269.371" y="1251" width="54.386" height="14" fill="#b18fbd"><title>Cache / identity: 187.540186 ms</title></rect>
<rect x="323.757" y="1251" width="63.034" height="14" fill="#74a6b6"><title>Source loading: 217.362645 ms</title></rect>
<rect x="386.791" y="1251" width="184.948" height="14" fill="#de996b"><title>Check + completion: 637.761989 ms</title></rect>
<rect x="571.739" y="1251" width="27.647" height="14" fill="#547d98"><title>Reach + code generation: 95.335053 ms</title></rect>
<rect x="599.386" y="1251" width="0.728" height="14" fill="#dddddd"><title>Request residual: 2.509204 ms</title></rect>
<text x="606.113" y="1262">1242</text>
<text x="212" y="1280">TS</text>
<rect x="240.000" y="1269" width="78.380" height="14" fill="#999999"><title>Import / API load: 270.280063 ms</title></rect>
<rect x="318.380" y="1269" width="0.000" height="14" fill="#b18fbd"><title>Cache / identity: 0.000000 ms</title></rect>
<rect x="318.380" y="1269" width="42.656" height="14" fill="#74a6b6"><title>Source loading: 147.093118 ms</title></rect>
<rect x="361.036" y="1269" width="47.822" height="14" fill="#de996b"><title>Check + completion: 164.907434 ms</title></rect>
<rect x="408.858" y="1269" width="4.130" height="14" fill="#547d98"><title>Reach + code generation: 14.241102 ms</title></rect>
<rect x="412.988" y="1269" width="0.073" height="14" fill="#dddddd"><title>Request residual: 0.251458 ms</title></rect>
<text x="419.061" y="1280">597</text>
<rect x="20" y="1320" width="12" height="12" fill="#999999"/>
<text x="40" y="1330">Import / API load</text>
<rect x="400" y="1320" width="12" height="12" fill="#b18fbd"/>
<text x="420" y="1330">Cache / identity</text>
<rect x="780" y="1320" width="12" height="12" fill="#74a6b6"/>
<text x="800" y="1330">Source loading</text>
<rect x="20" y="1343" width="12" height="12" fill="#de996b"/>
<text x="40" y="1353">Check + completion</text>
<rect x="400" y="1343" width="12" height="12" fill="#547d98"/>
<text x="420" y="1353">Reach + code generation</text>
<rect x="780" y="1343" width="12" height="12" fill="#dddddd"/>
<text x="800" y="1353">Request residual</text>
</g></svg>
