<?xml version="1.0" encoding="utf-8" standalone="no"?>
<!DOCTYPE svg PUBLIC "-//W3C//DTD SVG 1.1//EN"
  "http://www.w3.org/Graphics/SVG/1.1/DTD/svg11.dtd">
<svg xmlns:xlink="http://www.w3.org/1999/xlink" width="992.904062pt" height="370.761844pt" viewBox="0 0 992.904062 370.761844" xmlns="http://www.w3.org/2000/svg" version="1.1">
 <metadata>
  <rdf:RDF xmlns:dc="http://purl.org/dc/elements/1.1/" xmlns:cc="http://creativecommons.org/ns#" xmlns:rdf="http://www.w3.org/1999/02/22-rdf-syntax-ns#">
   <cc:Work>
    <dc:type rdf:resource="http://purl.org/dc/dcmitype/StillImage"/>
    <dc:date>2026-09-29T23:35:32.593066</dc:date>
    <dc:format>image/svg+xml</dc:format>
    <dc:creator>
     <cc:Agent>
      <dc:title>Matplotlib v3.9.4, https://matplotlib.org/</dc:title>
     </cc:Agent>
    </dc:creator>
   </cc:Work>
  </rdf:RDF>
 </metadata>
 <defs>
  <style type="text/css">*{stroke-linejoin: round; stroke-linecap: butt}</style>
 </defs>
 <g id="figure_1">
  <g id="patch_1">
   <path d="M 0 370.761844 
L 992.904062 370.761844 
L 992.904062 0 
L 0 0 
z
" style="fill: #ffffff"/>
  </g>
  <g id="axes_1">
   <g id="patch_2">
    <path d="M 67.704063 273.454125 
L 985.704062 273.454125 
L 985.704062 31.318125 
L 67.704063 31.318125 
z
" style="fill: #ffffff"/>
   </g>
   <g id="matplotlib.axis_1">
    <g id="xtick_1">
     <g id="line2d_1"/>
     <g id="text_1">
      <text style="font: 8px 'DejaVu Sans'" transform="translate(111.925759 286.532875)">P3</text>
      <text style="font: 8px 'DejaVu Sans'" transform="translate(99.067634 295.491125)">0683552</text>
     </g>
    </g>
    <g id="xtick_2">
     <g id="line2d_2"/>
     <g id="text_2">
      <text style="font: 8px 'DejaVu Sans'" transform="translate(193.890045 286.532875)">P5</text>
      <text style="font: 8px 'DejaVu Sans'" transform="translate(181.226295 295.491125)">7babeb0</text>
     </g>
    </g>
    <g id="xtick_3">
     <g id="line2d_3"/>
     <g id="text_3">
      <text style="font: 8px 'DejaVu Sans'" transform="translate(275.85433 286.532875)">P8</text>
      <text style="font: 8px 'DejaVu Sans'" transform="translate(263.35308 295.491125)">bc322d9</text>
     </g>
    </g>
    <g id="xtick_4">
     <g id="line2d_4"/>
     <g id="text_4">
      <text style="font: 8px 'DejaVu Sans'" transform="translate(357.818616 286.532875)">P9</text>
      <text style="font: 8px 'DejaVu Sans'" transform="translate(347.317991 295.491125)">f21e9f0</text>
     </g>
    </g>
    <g id="xtick_5">
     <g id="line2d_5"/>
     <g id="text_5">
      <text style="font: 8px 'DejaVu Sans'" transform="translate(437.237902 286.532875)">P12</text>
      <text style="font: 8px 'DejaVu Sans'" transform="translate(427.102277 295.491125)">9a4e109</text>
     </g>
    </g>
    <g id="xtick_6">
     <g id="line2d_6"/>
     <g id="text_6">
      <text style="font: 8px 'DejaVu Sans'" transform="translate(519.202188 286.532875)">P14</text>
      <text style="font: 8px 'DejaVu Sans'" transform="translate(510.130938 295.491125)">abb200f</text>
     </g>
    </g>
    <g id="xtick_7">
     <g id="line2d_7"/>
     <g id="text_7">
      <text style="font: 8px 'DejaVu Sans'" transform="translate(601.166473 286.532875)">P15</text>
      <text style="font: 8px 'DejaVu Sans'" transform="translate(590.947098 295.491125)">a383163</text>
     </g>
    </g>
    <g id="xtick_8">
     <g id="line2d_8"/>
     <g id="text_8">
      <text style="font: 8px 'DejaVu Sans'" transform="translate(683.130759 286.532875)">P16</text>
      <text style="font: 8px 'DejaVu Sans'" transform="translate(672.828884 295.491125)">0b51d96</text>
     </g>
    </g>
    <g id="xtick_9">
     <g id="line2d_9"/>
     <g id="text_9">
      <text style="font: 8px 'DejaVu Sans'" transform="translate(765.095045 286.532875)">P22</text>
      <text style="font: 8px 'DejaVu Sans'" transform="translate(754.86567 295.491125)">1e64079</text>
     </g>
    </g>
    <g id="xtick_10">
     <g id="line2d_10"/>
     <g id="text_10">
      <text style="font: 8px 'DejaVu Sans'" transform="translate(847.05933 286.532875)">P23</text>
      <text style="font: 8px 'DejaVu Sans'" transform="translate(837.52683 295.491125)">8eb2cc0</text>
     </g>
    </g>
    <g id="xtick_11">
     <g id="line2d_11"/>
     <g id="text_11">
      <text style="font: 8px 'DejaVu Sans'" transform="translate(929.023616 286.532875)">P24</text>
      <text style="font: 8px 'DejaVu Sans'" transform="translate(919.852991 295.491125)">5350b2f</text>
     </g>
    </g>
   </g>
   <g id="matplotlib.axis_2">
    <g id="ytick_1">
     <g id="line2d_12">
      <path d="M 67.704063 247.328596 
L 985.704062 247.328596 
" clip-path="url(#p9a2345234d)" style="fill: none; stroke: #e7ebf1; stroke-width: 0.7; stroke-linecap: square"/>
     </g>
     <g id="line2d_13"/>
     <g id="text_12">
      <text style="font: 10px 'DejaVu Sans'; text-anchor: end" x="60.704063" y="251.127815" transform="rotate(-0 60.704063 251.127815)">0</text>
     </g>
    </g>
    <g id="ytick_2">
     <g id="line2d_14">
      <path d="M 67.704063 210.006412 
L 985.704062 210.006412 
" clip-path="url(#p9a2345234d)" style="fill: none; stroke: #e7ebf1; stroke-width: 0.7; stroke-linecap: square"/>
     </g>
     <g id="line2d_15"/>
     <g id="text_13">
      <text style="font: 10px 'DejaVu Sans'; text-anchor: end" x="60.704063" y="213.805631" transform="rotate(-0 60.704063 213.805631)">2</text>
     </g>
    </g>
    <g id="ytick_3">
     <g id="line2d_16">
      <path d="M 67.704063 165.000101 
L 985.704062 165.000101 
" clip-path="url(#p9a2345234d)" style="fill: none; stroke: #e7ebf1; stroke-width: 0.7; stroke-linecap: square"/>
     </g>
     <g id="line2d_17"/>
     <g id="text_14">
      <text style="font: 10px 'DejaVu Sans'; text-anchor: end" x="60.704063" y="168.79932" transform="rotate(-0 60.704063 168.79932)">10</text>
     </g>
    </g>
    <g id="ytick_4">
     <g id="line2d_18">
      <path d="M 67.704063 114.615153 
L 985.704062 114.615153 
" clip-path="url(#p9a2345234d)" style="fill: none; stroke: #e7ebf1; stroke-width: 0.7; stroke-linecap: square"/>
     </g>
     <g id="line2d_19"/>
     <g id="text_15">
      <text style="font: 10px 'DejaVu Sans'; text-anchor: end" x="60.704063" y="118.414371" transform="rotate(-0 60.704063 118.414371)">100</text>
     </g>
    </g>
    <g id="ytick_5">
     <g id="line2d_20">
      <path d="M 67.704063 64.230204 
L 985.704062 64.230204 
" clip-path="url(#p9a2345234d)" style="fill: none; stroke: #e7ebf1; stroke-width: 0.7; stroke-linecap: square"/>
     </g>
     <g id="line2d_21"/>
     <g id="text_16">
      <text style="font: 10px 'DejaVu Sans'; text-anchor: end" x="60.704063" y="68.029423" transform="rotate(-0 60.704063 68.029423)">1,000</text>
     </g>
    </g>
    <g id="ytick_6">
     <g id="line2d_22">
      <defs>
       <path id="m4e759426a6" d="M 0 0 
L -2 0 
" style="stroke: #000000; stroke-width: 0.6"/>
      </defs>
      <g>
       <use xlink:href="#m4e759426a6" x="67.704063" y="228.667504" style="stroke: #000000; stroke-width: 0.6"/>
      </g>
     </g>
    </g>
    <g id="text_17">
     <text style="fill: #25344a; font: 10px 'DejaVu Sans'" transform="translate(14.798438 246.515031) rotate(-90)">Remaining exact frontend differences</text>
     <text style="fill: #25344a; font: 10px 'DejaVu Sans'" transform="translate(25.99625 227.136906) rotate(-90)">Lower is better · symlog scale</text>
    </g>
   </g>
   <g id="line2d_23">
    <path d="M 116.882634 76.917737 
L 198.84692 81.996795 
" clip-path="url(#p9a2345234d)" style="fill: none; stroke: #bb5b22; stroke-width: 2; stroke-linecap: square"/>
    <defs>
     <path id="m8947e6d6c5" d="M 0 3 
C 0.795609 3 1.55874 2.683901 2.12132 2.12132 
C 2.683901 1.55874 3 0.795609 3 0 
C 3 -0.795609 2.683901 -1.55874 2.12132 -2.12132 
C 1.55874 -2.683901 0.795609 -3 0 -3 
C -0.795609 -3 -1.55874 -2.683901 -2.12132 -2.12132 
C -2.683901 -1.55874 -3 -0.795609 -3 0 
C -3 0.795609 -2.683901 1.55874 -2.12132 2.12132 
C -1.55874 2.683901 -0.795609 3 0 3 
z
" style="stroke: #bb5b22"/>
    </defs>
    <g clip-path="url(#p9a2345234d)">
     <use xlink:href="#m8947e6d6c5" x="116.882634" y="76.917737" style="fill: #bb5b22; stroke: #bb5b22"/>
     <use xlink:href="#m8947e6d6c5" x="198.84692" y="81.996795" style="fill: #bb5b22; stroke: #bb5b22"/>
    </g>
   </g>
   <g id="line2d_24">
    <path d="M 280.811205 70.997101 
L 362.775491 71.08672 
L 444.739777 71.116675 
L 526.704063 75.298905 
L 608.668348 81.269754 
L 690.632634 210.006412 
L 772.59692 247.328596 
" clip-path="url(#p9a2345234d)" style="fill: none; stroke: #2458a6; stroke-width: 2; stroke-linecap: square"/>
    <defs>
     <path id="m0f49753222" d="M 0 3 
C 0.795609 3 1.55874 2.683901 2.12132 2.12132 
C 2.683901 1.55874 3 0.795609 3 0 
C 3 -0.795609 2.683901 -1.55874 2.12132 -2.12132 
C 1.55874 -2.683901 0.795609 -3 0 -3 
C -0.795609 -3 -1.55874 -2.683901 -2.12132 -2.12132 
C -2.683901 -1.55874 -3 -0.795609 -3 0 
C -3 0.795609 -2.683901 1.55874 -2.12132 2.12132 
C -1.55874 2.683901 -0.795609 3 0 3 
z
" style="stroke: #2458a6"/>
    </defs>
    <g clip-path="url(#p9a2345234d)">
     <use xlink:href="#m0f49753222" x="280.811205" y="70.997101" style="fill: #2458a6; stroke: #2458a6"/>
     <use xlink:href="#m0f49753222" x="362.775491" y="71.08672" style="fill: #2458a6; stroke: #2458a6"/>
     <use xlink:href="#m0f49753222" x="444.739777" y="71.116675" style="fill: #2458a6; stroke: #2458a6"/>
     <use xlink:href="#m0f49753222" x="526.704063" y="75.298905" style="fill: #2458a6; stroke: #2458a6"/>
     <use xlink:href="#m0f49753222" x="608.668348" y="81.269754" style="fill: #2458a6; stroke: #2458a6"/>
     <use xlink:href="#m0f49753222" x="690.632634" y="210.006412" style="fill: #2458a6; stroke: #2458a6"/>
     <use xlink:href="#m0f49753222" x="772.59692" y="247.328596" style="fill: #2458a6; stroke: #2458a6"/>
    </g>
   </g>
   <g id="line2d_25">
    <path d="M 239.829063 273.454125 
L 239.829063 31.318125 
" clip-path="url(#p9a2345234d)" style="fill: none; stroke-dasharray: 2.96,1.28; stroke-dashoffset: 0; stroke: #566376; stroke-width: 0.8"/>
   </g>
   <g id="line2d_26">
    <path d="M 854.561205 247.328596 
L 936.525491 247.328596 
" clip-path="url(#p9a2345234d)" style="fill: none; stroke: #087f75; stroke-width: 2; stroke-linecap: square"/>
    <defs>
     <path id="m017a0a5e7c" d="M 0 3 
C 0.795609 3 1.55874 2.683901 2.12132 2.12132 
C 2.683901 1.55874 3 0.795609 3 0 
C 3 -0.795609 2.683901 -1.55874 2.12132 -2.12132 
C 1.55874 -2.683901 0.795609 -3 0 -3 
C -0.795609 -3 -1.55874 -2.683901 -2.12132 -2.12132 
C -2.683901 -1.55874 -3 -0.795609 -3 0 
C -3 0.795609 -2.683901 1.55874 -2.12132 2.12132 
C -1.55874 2.683901 -0.795609 3 0 3 
z
" style="stroke: #087f75"/>
    </defs>
    <g clip-path="url(#p9a2345234d)">
     <use xlink:href="#m017a0a5e7c" x="854.561205" y="247.328596" style="fill: #087f75; stroke: #087f75"/>
     <use xlink:href="#m017a0a5e7c" x="936.525491" y="247.328596" style="fill: #087f75; stroke: #087f75"/>
    </g>
   </g>
   <g id="line2d_27">
    <path d="M 813.579063 273.454125 
L 813.579063 31.318125 
" clip-path="url(#p9a2345234d)" style="fill: none; stroke-dasharray: 2.96,1.28; stroke-dashoffset: 0; stroke: #566376; stroke-width: 0.8"/>
   </g>
   <g id="patch_3">
    <path d="M 67.704063 273.454125 
L 67.704063 31.318125 
" style="fill: none; stroke: #ccd3dc; stroke-width: 0.8; stroke-linejoin: miter; stroke-linecap: square"/>
   </g>
   <g id="patch_4">
    <path d="M 67.704063 273.454125 
L 985.704063 273.454125 
" style="fill: none; stroke: #ccd3dc; stroke-width: 0.8; stroke-linejoin: miter; stroke-linecap: square"/>
   </g>
   <g id="text_18">
    <text style="fill: #bb5b22; font: 8px 'DejaVu Sans'; text-anchor: middle" x="157.864777" y="42.495963" transform="rotate(-0 157.864777 42.495963)">2,756 comparisons · 6018e28</text>
   </g>
   <g id="text_19">
    <text style="fill: #2458a6; font: 8px 'DejaVu Sans'; text-anchor: middle" x="526.704063" y="42.495963" transform="rotate(-0 526.704063 42.495963)">2,996 comparisons · b2111cf</text>
   </g>
   <g id="text_20">
    <text style="fill: #087f75; font: 8px 'DejaVu Sans'; text-anchor: middle" x="895.543348" y="42.495963" transform="rotate(-0 895.543348 42.495963)">3,026 comparisons · 0187512</text>
   </g>
   <g id="text_21">
    <text style="fill: #17263b; font: 700 9px 'DejaVu Sans'; text-anchor: middle" x="116.882634" y="68.917737" transform="rotate(-0 116.882634 68.917737)">560</text>
   </g>
   <g id="text_22">
    <text style="fill: #17263b; font: 700 9px 'DejaVu Sans'; text-anchor: middle" x="198.84692" y="73.996795" transform="rotate(-0 198.84692 73.996795)">444</text>
   </g>
   <g id="text_23">
    <text style="fill: #17263b; font: 700 9px 'DejaVu Sans'; text-anchor: middle" x="280.811205" y="62.997101" transform="rotate(-0 280.811205 62.997101)">734</text>
   </g>
   <g id="text_24">
    <text style="fill: #17263b; font: 700 9px 'DejaVu Sans'; text-anchor: middle" x="362.775491" y="63.08672" transform="rotate(-0 362.775491 63.08672)">731</text>
   </g>
   <g id="text_25">
    <text style="fill: #17263b; font: 700 9px 'DejaVu Sans'; text-anchor: middle" x="444.739777" y="63.116675" transform="rotate(-0 444.739777 63.116675)">730</text>
   </g>
   <g id="text_26">
    <text style="fill: #17263b; font: 700 9px 'DejaVu Sans'; text-anchor: middle" x="526.704063" y="67.298905" transform="rotate(-0 526.704063 67.298905)">603</text>
   </g>
   <g id="text_27">
    <text style="fill: #17263b; font: 700 9px 'DejaVu Sans'; text-anchor: middle" x="608.668348" y="73.269754" transform="rotate(-0 608.668348 73.269754)">459</text>
   </g>
   <g id="text_28">
    <text style="fill: #17263b; font: 700 9px 'DejaVu Sans'; text-anchor: middle" x="690.632634" y="202.006412" transform="rotate(-0 690.632634 202.006412)">2</text>
   </g>
   <g id="text_29">
    <text style="fill: #17263b; font: 700 9px 'DejaVu Sans'; text-anchor: middle" x="772.59692" y="239.328596" transform="rotate(-0 772.59692 239.328596)">0</text>
   </g>
   <g id="text_30">
    <text style="fill: #17263b; font: 700 9px 'DejaVu Sans'; text-anchor: middle" x="854.561205" y="239.328596" transform="rotate(-0 854.561205 239.328596)">0</text>
   </g>
   <g id="text_31">
    <text style="fill: #17263b; font: 700 9px 'DejaVu Sans'; text-anchor: middle" x="936.525491" y="239.328596" transform="rotate(-0 936.525491 239.328596)">0</text>
   </g>
   <g id="text_32">
    <text style="fill: #566376; font: 9px 'DejaVu Sans'; text-anchor: start" x="67.704063" y="27.686085" transform="rotate(-0 67.704063 27.686085)">Pin/suite changes break the line. Zero differences is finite tested agreement, not universal conformance.</text>
   </g>
   <g id="text_33">
    <text style="fill: #17263b; font: 700 12px 'DejaVu Sans'; text-anchor: start" x="67.704063" y="16.318125" transform="rotate(-0 67.704063 16.318125)">2  Conformance: exact agreement within each pinned frontend suite</text>
   </g>
  </g>
  <g id="text_34">
   <text style="fill: #566376; font: 9px 'DejaVu Sans'; text-anchor: start" x="67.704063" y="361.690125" transform="rotate(-0 67.704063 361.690125)">Agent-generated report for PR #1207 · milestone spacing · immutable sources in chart-data.json · head 5350b2f</text>
  </g>
 </g>
 <defs>
  <clipPath id="p9a2345234d">
   <rect x="67.704063" y="31.318125" width="918" height="242.136"/>
  </clipPath>
 </defs>
</svg>
