<?xml version="1.0" encoding="utf-8" standalone="no"?>
<!DOCTYPE svg PUBLIC "-//W3C//DTD SVG 1.1//EN"
  "http://www.w3.org/Graphics/SVG/1.1/DTD/svg11.dtd">
<svg xmlns:xlink="http://www.w3.org/1999/xlink" width="648pt" height="684pt" viewBox="0 0 648 684" xmlns="http://www.w3.org/2000/svg" version="1.1">
 <title>Compilation Average History</title>
 <metadata>
  <rdf:RDF xmlns:dc="http://purl.org/dc/elements/1.1/" xmlns:cc="http://creativecommons.org/ns#" xmlns:rdf="http://www.w3.org/1999/02/22-rdf-syntax-ns#">
   <cc:Work>
    <dc:type rdf:resource="http://purl.org/dc/dcmitype/StillImage"/>
    <dc:title>Compilation Average History</dc:title>
    <dc:date>2026-10-06</dc:date>
    <dc:description>Two separate compilation measurement scopes. The upper panel shows 15 historical compiler-source checking process-time snapshots from Phase8 to Phase24, without code emission, on a logarithmic 1x to 100x axis. The source and timing windows evolve, so the snapshots are unconnected. The TypeScript reference pin changes at Phase23. The recorded ratio declines from 73.20x to 2.99x across these snapshots. The lower panel separately shows the geometric mean of checked JavaScript emission request-time ratios on four programs at Phase42 through Phase45, three programs at Phase47, and two programs at Phase48. These cohorts have disconnected lines on a linear axis, ending at 9.86x. No Phase53 default compilation measurement is available. Both panels show the 1x TypeScript reference. Historical and current measurements are not joined or treated as a matched workload.</dc:description>
    <dc:format>image/svg+xml</dc:format>
    <dc:creator>
     <cc:Agent>
      <dc:title>Bend Progress chart renderer</dc:title>
     </cc:Agent>
    </dc:creator>
   </cc:Work>
  </rdf:RDF>
 </metadata>
 <defs>
  <style type="text/css">*{stroke-linejoin: round; stroke-linecap: butt}</style>
 </defs>
 <g id="figure_1">
  <g id="patch_1">
   <path d="M 0 684 
L 648 684 
L 648 0 
L 0 0 
L 0 684 
z
" style="fill: none"/>
  </g>
  <g id="axes_1">
   <g id="patch_2">
    <path d="M 71.28 283.86 
L 615.6 283.86 
L 615.6 119.7 
L 71.28 119.7 
L 71.28 283.86 
z
" style="fill: none"/>
   </g>
   <g id="matplotlib.axis_1">
    <g id="xtick_1">
     <g id="line2d_1"/>
     <g id="text_1">
      <text style="fill: #586660; font: 11px 'DejaVu Sans'; text-anchor: middle" x="96.021818" y="301.218281" transform="rotate(-0 96.021818 301.218281)">P8</text>
     </g>
    </g>
    <g id="xtick_2">
     <g id="line2d_2"/>
     <g id="text_2">
      <text style="fill: #586660; font: 11px 'DejaVu Sans'; text-anchor: middle" x="126.949091" y="301.218281" transform="rotate(-0 126.949091 301.218281)">P9</text>
     </g>
    </g>
    <g id="xtick_3">
     <g id="line2d_3"/>
     <g id="text_3">
      <text style="fill: #586660; font: 11px 'DejaVu Sans'; text-anchor: middle" x="188.803636" y="301.218281" transform="rotate(-0 188.803636 301.218281)">P11</text>
     </g>
    </g>
    <g id="xtick_4">
     <g id="line2d_4"/>
     <g id="text_4">
      <text style="fill: #586660; font: 11px 'DejaVu Sans'; text-anchor: middle" x="281.585455" y="301.218281" transform="rotate(-0 281.585455 301.218281)">P14</text>
     </g>
    </g>
    <g id="xtick_5">
     <g id="line2d_5"/>
     <g id="text_5">
      <text style="fill: #586660; font: 11px 'DejaVu Sans'; text-anchor: middle" x="343.44" y="301.218281" transform="rotate(-0 343.44 301.218281)">P16</text>
     </g>
    </g>
    <g id="xtick_6">
     <g id="line2d_6"/>
     <g id="text_6">
      <text style="fill: #586660; font: 11px 'DejaVu Sans'; text-anchor: middle" x="436.221818" y="301.218281" transform="rotate(-0 436.221818 301.218281)">P19</text>
     </g>
    </g>
    <g id="xtick_7">
     <g id="line2d_7"/>
     <g id="text_7">
      <text style="fill: #586660; font: 11px 'DejaVu Sans'; text-anchor: middle" x="498.076364" y="301.218281" transform="rotate(-0 498.076364 301.218281)">P21</text>
     </g>
    </g>
    <g id="xtick_8">
     <g id="line2d_8"/>
     <g id="text_8">
      <text style="fill: #586660; font: 11px 'DejaVu Sans'; text-anchor: middle" x="559.930909" y="301.218281" transform="rotate(-0 559.930909 301.218281)">P23</text>
     </g>
    </g>
    <g id="xtick_9">
     <g id="line2d_9"/>
     <g id="text_9">
      <text style="fill: #586660; font: 11px 'DejaVu Sans'; text-anchor: middle" x="590.858182" y="301.218281" transform="rotate(-0 590.858182 301.218281)">P24</text>
     </g>
    </g>
   </g>
   <g id="matplotlib.axis_2">
    <g id="ytick_1">
     <g id="line2d_10">
      <path d="M 71.28 283.86 
L 615.6 283.86 
" clip-path="url(#p5fb471afd1)" style="fill: none; stroke: #dce3da; stroke-width: 0.8; stroke-linecap: square"/>
     </g>
     <g id="line2d_11"/>
     <g id="text_10">
      <text style="fill: #586660; font: 13px 'DejaVu Sans'; text-anchor: end" x="62.28" y="288.798984" transform="rotate(-0 62.28 288.798984)">1×</text>
     </g>
    </g>
    <g id="ytick_2">
     <g id="line2d_12">
      <path d="M 71.28 244.697887 
L 615.6 244.697887 
" clip-path="url(#p5fb471afd1)" style="fill: none; stroke: #dce3da; stroke-width: 0.8; stroke-linecap: square"/>
     </g>
     <g id="line2d_13"/>
     <g id="text_11">
      <text style="fill: #586660; font: 13px 'DejaVu Sans'; text-anchor: end" x="62.28" y="249.636872" transform="rotate(-0 62.28 249.636872)">3×</text>
     </g>
    </g>
    <g id="ytick_3">
     <g id="line2d_14">
      <path d="M 71.28 201.78 
L 615.6 201.78 
" clip-path="url(#p5fb471afd1)" style="fill: none; stroke: #dce3da; stroke-width: 0.8; stroke-linecap: square"/>
     </g>
     <g id="line2d_15"/>
     <g id="text_12">
      <text style="fill: #586660; font: 13px 'DejaVu Sans'; text-anchor: end" x="62.28" y="206.718984" transform="rotate(-0 62.28 206.718984)">10×</text>
     </g>
    </g>
    <g id="ytick_4">
     <g id="line2d_16">
      <path d="M 71.28 162.617887 
L 615.6 162.617887 
" clip-path="url(#p5fb471afd1)" style="fill: none; stroke: #dce3da; stroke-width: 0.8; stroke-linecap: square"/>
     </g>
     <g id="line2d_17"/>
     <g id="text_13">
      <text style="fill: #586660; font: 13px 'DejaVu Sans'; text-anchor: end" x="62.28" y="167.556872" transform="rotate(-0 62.28 167.556872)">30×</text>
     </g>
    </g>
    <g id="ytick_5">
     <g id="line2d_18">
      <path d="M 71.28 119.7 
L 615.6 119.7 
" clip-path="url(#p5fb471afd1)" style="fill: none; stroke: #dce3da; stroke-width: 0.8; stroke-linecap: square"/>
     </g>
     <g id="line2d_19"/>
     <g id="text_14">
      <text style="fill: #586660; font: 13px 'DejaVu Sans'; text-anchor: end" x="62.28" y="124.638984" transform="rotate(-0 62.28 124.638984)">100×</text>
     </g>
    </g>
   </g>
   <g id="line2d_20">
    <path d="M 71.28 283.86 
L 615.6 283.86 
" clip-path="url(#p5fb471afd1)" style="fill: none; stroke: #202d29; stroke-width: 1.3; stroke-linecap: square"/>
   </g>
   <g id="line2d_21">
    <path d="M 544.467273 283.86 
L 544.467273 119.7 
" clip-path="url(#p5fb471afd1)" style="fill: none; stroke-dasharray: 4.5,6; stroke-dashoffset: 0; stroke: #dce3da; stroke-width: 1.5"/>
   </g>
   <g id="text_15">
    <g id="patch_3">
     <path d="M 73.7532 286.83 
L 169.286481 286.83 
L 169.286481 270.244063 
L 73.7532 270.244063 
z
" style="fill: #f6f7f2"/>
    </g>
    <text style="fill: #202d29; font: 11px 'DejaVu Sans'; text-anchor: start" x="76.7232" y="281.572344" transform="rotate(-0 76.7232 281.572344)">1× = TypeScript</text>
   </g>
   <g id="text_16">
    <text style="fill: #245f43; font: 700 13px 'DejaVu Sans'; text-anchor: middle" x="103.021818" y="120.116086" transform="rotate(-0 103.021818 120.116086)">73.20×</text>
   </g>
   <g id="text_17">
    <text style="fill: #245f43; font: 700 13px 'DejaVu Sans'; text-anchor: middle" x="126.949091" y="157.797231" transform="rotate(-0 126.949091 157.797231)">22.74×</text>
   </g>
   <g id="text_18">
    <text style="fill: #245f43; font: 700 13px 'DejaVu Sans'; text-anchor: middle" x="188.803636" y="184.74902" transform="rotate(-0 188.803636 184.74902)">10.67×</text>
   </g>
   <g id="text_19">
    <text style="fill: #245f43; font: 700 13px 'DejaVu Sans'; text-anchor: middle" x="343.44" y="225.300273" transform="rotate(-0 343.44 225.300273)">3.42×</text>
   </g>
   <g id="text_20">
    <text style="fill: #245f43; font: 700 13px 'DejaVu Sans'; text-anchor: middle" x="589.858182" y="230.16812" transform="rotate(-0 589.858182 230.16812)">2.99×</text>
   </g>
   <g id="text_21">
    <text style="fill: #586660; font: 11px 'DejaVu Sans'" transform="translate(475.037486 144.528409)">New TS pin</text>
    <text style="fill: #586660; font: 11px 'DejaVu Sans'" transform="translate(501.55608 159.353487)">at P23</text>
   </g>
   <g id="PathCollection_1">
    <defs>
     <path id="C0_0_2c93b0a3c4" d="M 0 3.640055 
C 0.965354 3.640055 1.891299 3.256516 2.573908 2.573908 
C 3.256516 1.891299 3.640055 0.965354 3.640055 -0 
C 3.640055 -0.965354 3.256516 -1.891299 2.573908 -2.573908 
C 1.891299 -3.256516 0.965354 -3.640055 0 -3.640055 
C -0.965354 -3.640055 -1.891299 -3.256516 -2.573908 -2.573908 
C -3.256516 -1.891299 -3.640055 -0.965354 -3.640055 0 
C -3.640055 0.965354 -3.256516 1.891299 -2.573908 2.573908 
C -1.891299 3.256516 -0.965354 3.640055 0 3.640055 
z
"/>
    </defs>
    <g clip-path="url(#p5fb471afd1)">
     <use xlink:href="#C0_0_2c93b0a3c4" x="96.021818" y="130.81968" style="fill: #245f43; stroke: #f6f7f2; stroke-width: 1.2"/>
    </g>
    <g clip-path="url(#p5fb471afd1)">
     <use xlink:href="#C0_0_2c93b0a3c4" x="126.949091" y="172.500825" style="fill: #245f43; stroke: #f6f7f2; stroke-width: 1.2"/>
    </g>
    <g clip-path="url(#p5fb471afd1)">
     <use xlink:href="#C0_0_2c93b0a3c4" x="157.876364" y="180.975021" style="fill: #2b7f85; stroke: #f6f7f2; stroke-width: 1.2"/>
    </g>
    <g clip-path="url(#p5fb471afd1)">
     <use xlink:href="#C0_0_2c93b0a3c4" x="188.803636" y="199.452613" style="fill: #245f43; stroke: #f6f7f2; stroke-width: 1.2"/>
    </g>
    <g clip-path="url(#p5fb471afd1)">
     <use xlink:href="#C0_0_2c93b0a3c4" x="219.730909" y="203.906058" style="fill: #2b7f85; stroke: #f6f7f2; stroke-width: 1.2"/>
    </g>
    <g clip-path="url(#p5fb471afd1)">
     <use xlink:href="#C0_0_2c93b0a3c4" x="281.585455" y="206.000966" style="fill: #2b7f85; stroke: #f6f7f2; stroke-width: 1.2"/>
    </g>
    <g clip-path="url(#p5fb471afd1)">
     <use xlink:href="#C0_0_2c93b0a3c4" x="312.512727" y="208.199291" style="fill: #2b7f85; stroke: #f6f7f2; stroke-width: 1.2"/>
    </g>
    <g clip-path="url(#p5fb471afd1)">
     <use xlink:href="#C0_0_2c93b0a3c4" x="343.44" y="240.003867" style="fill: #245f43; stroke: #f6f7f2; stroke-width: 1.2"/>
    </g>
    <g clip-path="url(#p5fb471afd1)">
     <use xlink:href="#C0_0_2c93b0a3c4" x="374.367273" y="240.032705" style="fill: #2b7f85; stroke: #f6f7f2; stroke-width: 1.2"/>
    </g>
    <g clip-path="url(#p5fb471afd1)">
     <use xlink:href="#C0_0_2c93b0a3c4" x="436.221818" y="242.680934" style="fill: #2b7f85; stroke: #f6f7f2; stroke-width: 1.2"/>
    </g>
    <g clip-path="url(#p5fb471afd1)">
     <use xlink:href="#C0_0_2c93b0a3c4" x="467.149091" y="242.679489" style="fill: #2b7f85; stroke: #f6f7f2; stroke-width: 1.2"/>
    </g>
    <g clip-path="url(#p5fb471afd1)">
     <use xlink:href="#C0_0_2c93b0a3c4" x="498.076364" y="242.532984" style="fill: #2b7f85; stroke: #f6f7f2; stroke-width: 1.2"/>
    </g>
    <g clip-path="url(#p5fb471afd1)">
     <use xlink:href="#C0_0_2c93b0a3c4" x="529.003636" y="242.819447" style="fill: #2b7f85; stroke: #f6f7f2; stroke-width: 1.2"/>
    </g>
    <g clip-path="url(#p5fb471afd1)">
     <use xlink:href="#C0_0_2c93b0a3c4" x="559.930909" y="243.519355" style="fill: #2b7f85; stroke: #f6f7f2; stroke-width: 1.2"/>
    </g>
    <g clip-path="url(#p5fb471afd1)">
     <use xlink:href="#C0_0_2c93b0a3c4" x="590.858182" y="244.871714" style="fill: #245f43; stroke: #f6f7f2; stroke-width: 1.2"/>
    </g>
   </g>
  </g>
  <g id="axes_2">
   <g id="patch_4">
    <path d="M 71.28 574.56 
L 615.6 574.56 
L 615.6 434.34 
L 71.28 434.34 
L 71.28 574.56 
z
" style="fill: none"/>
   </g>
   <g id="matplotlib.axis_3">
    <g id="xtick_10">
     <g id="line2d_22"/>
     <g id="text_22">
      <text style="fill: #586660; font: 11px 'DejaVu Sans'" transform="translate(73.293861 591.918281)">P42 · 10/03</text>
      <text style="fill: #586660; font: 11px 'DejaVu Sans'" transform="translate(82.24597 604.235875)">714c5f5</text>
     </g>
    </g>
    <g id="xtick_11">
     <g id="line2d_23"/>
     <g id="text_23">
      <text style="fill: #586660; font: 11px 'DejaVu Sans'" transform="translate(168.788598 591.918281)">P43 · 10/04</text>
      <text style="fill: #586660; font: 11px 'DejaVu Sans'" transform="translate(176.185238 604.235875)">69d8c70</text>
     </g>
    </g>
    <g id="xtick_12">
     <g id="line2d_24"/>
     <g id="text_24">
      <text style="fill: #586660; font: 11px 'DejaVu Sans'" transform="translate(264.283335 591.918281)">P44 · 10/04</text>
      <text style="fill: #586660; font: 11px 'DejaVu Sans'" transform="translate(272.775678 604.235875)">8f57b1b</text>
     </g>
    </g>
    <g id="xtick_13">
     <g id="line2d_25"/>
     <g id="text_25">
      <text style="fill: #586660; font: 11px 'DejaVu Sans'" transform="translate(359.778072 591.918281)">P45 · 10/04</text>
      <text style="fill: #586660; font: 11px 'DejaVu Sans'" transform="translate(367.533931 604.235875)">ab74ece</text>
     </g>
    </g>
    <g id="xtick_14">
     <g id="line2d_26"/>
     <g id="text_26">
      <text style="fill: #586660; font: 11px 'DejaVu Sans'" transform="translate(455.272808 591.918281)">P47 · 10/05</text>
      <text style="fill: #586660; font: 11px 'DejaVu Sans'" transform="translate(462.416793 604.235875)">ee54723</text>
     </g>
    </g>
    <g id="xtick_15">
     <g id="line2d_27"/>
     <g id="text_27">
      <text style="fill: #586660; font: 11px 'DejaVu Sans'" transform="translate(550.767545 591.918281)">P48 · 10/05</text>
      <text style="fill: #586660; font: 11px 'DejaVu Sans'" transform="translate(557.811842 604.235875)">2d6e5d8</text>
     </g>
    </g>
   </g>
   <g id="matplotlib.axis_4">
    <g id="ytick_6">
     <g id="line2d_28">
      <path d="M 71.28 574.56 
L 615.6 574.56 
" clip-path="url(#pfa70c985d9)" style="fill: none; stroke: #dce3da; stroke-width: 0.8; stroke-linecap: square"/>
     </g>
     <g id="line2d_29"/>
     <g id="text_28">
      <text style="fill: #586660; font: 13px 'DejaVu Sans'; text-anchor: end" x="62.28" y="579.498984" transform="rotate(-0 62.28 579.498984)">0×</text>
     </g>
    </g>
    <g id="ytick_7">
     <g id="line2d_30">
      <path d="M 71.28 546.773217 
L 615.6 546.773217 
" clip-path="url(#pfa70c985d9)" style="fill: none; stroke: #dce3da; stroke-width: 0.8; stroke-linecap: square"/>
     </g>
     <g id="line2d_31"/>
     <g id="text_29">
      <text style="fill: #586660; font: 13px 'DejaVu Sans'; text-anchor: end" x="62.28" y="551.712202" transform="rotate(-0 62.28 551.712202)">2.5×</text>
     </g>
    </g>
    <g id="ytick_8">
     <g id="line2d_32">
      <path d="M 71.28 518.986434 
L 615.6 518.986434 
" clip-path="url(#pfa70c985d9)" style="fill: none; stroke: #dce3da; stroke-width: 0.8; stroke-linecap: square"/>
     </g>
     <g id="line2d_33"/>
     <g id="text_30">
      <text style="fill: #586660; font: 13px 'DejaVu Sans'; text-anchor: end" x="62.28" y="523.925419" transform="rotate(-0 62.28 523.925419)">5×</text>
     </g>
    </g>
    <g id="ytick_9">
     <g id="line2d_34">
      <path d="M 71.28 491.199652 
L 615.6 491.199652 
" clip-path="url(#pfa70c985d9)" style="fill: none; stroke: #dce3da; stroke-width: 0.8; stroke-linecap: square"/>
     </g>
     <g id="line2d_35"/>
     <g id="text_31">
      <text style="fill: #586660; font: 13px 'DejaVu Sans'; text-anchor: end" x="62.28" y="496.138636" transform="rotate(-0 62.28 496.138636)">7.5×</text>
     </g>
    </g>
    <g id="ytick_10">
     <g id="line2d_36">
      <path d="M 71.28 463.412869 
L 615.6 463.412869 
" clip-path="url(#pfa70c985d9)" style="fill: none; stroke: #dce3da; stroke-width: 0.8; stroke-linecap: square"/>
     </g>
     <g id="line2d_37"/>
     <g id="text_32">
      <text style="fill: #586660; font: 13px 'DejaVu Sans'; text-anchor: end" x="62.28" y="468.351853" transform="rotate(-0 62.28 468.351853)">10×</text>
     </g>
    </g>
   </g>
   <g id="line2d_38">
    <path d="M 438.934737 574.56 
L 438.934737 434.34 
" clip-path="url(#pfa70c985d9)" style="fill: none; stroke-dasharray: 4.5,6; stroke-dashoffset: 0; stroke: #dce3da; stroke-width: 1.5"/>
   </g>
   <g id="line2d_39">
    <path d="M 534.429474 574.56 
L 534.429474 434.34 
" clip-path="url(#pfa70c985d9)" style="fill: none; stroke-dasharray: 4.5,6; stroke-dashoffset: 0; stroke: #dce3da; stroke-width: 1.5"/>
   </g>
   <g id="line2d_40">
    <path d="M 71.28 563.445287 
L 615.6 563.445287 
" clip-path="url(#pfa70c985d9)" style="fill: none; stroke: #202d29; stroke-width: 1.3; stroke-linecap: square"/>
   </g>
   <g id="text_33">
    <text style="fill: #426ba0; font: 700 11px 'DejaVu Sans'; text-anchor: middle" x="247.945263" y="429.863106" transform="rotate(-0 247.945263 429.863106)">4 programs</text>
   </g>
   <g id="text_34">
    <text style="fill: #2b7f85; font: 700 11px 'DejaVu Sans'; text-anchor: middle" x="486.682105" y="429.863106" transform="rotate(-0 486.682105 429.863106)">3 programs</text>
   </g>
   <g id="text_35">
    <text style="fill: #245f43; font: 700 11px 'DejaVu Sans'; text-anchor: middle" x="582.176842" y="429.863106" transform="rotate(-0 582.176842 429.863106)">2 programs</text>
   </g>
   <g id="text_36">
    <g id="patch_5">
     <path d="M 73.7532 566.415287 
L 169.286481 566.415287 
L 169.286481 549.829349 
L 73.7532 549.829349 
z
" style="fill: #f6f7f2"/>
    </g>
    <text style="fill: #202d29; font: 11px 'DejaVu Sans'; text-anchor: start" x="76.7232" y="561.157631" transform="rotate(-0 76.7232 561.157631)">1× = TypeScript</text>
   </g>
   <g id="text_37">
    <text style="fill: #245f43; font: 13px 'DejaVu Sans'; text-anchor: middle" x="104.703158" y="502.604652" transform="rotate(-0 104.703158 502.604652)">5.24×</text>
   </g>
   <g id="text_38">
    <text style="fill: #245f43; font: 13px 'DejaVu Sans'; text-anchor: middle" x="200.197895" y="463.800754" transform="rotate(-0 200.197895 463.800754)">8.73×</text>
   </g>
   <g id="text_39">
    <text style="fill: #245f43; font: 13px 'DejaVu Sans'; text-anchor: middle" x="295.692632" y="467.818052" transform="rotate(-0 295.692632 467.818052)">8.37×</text>
   </g>
   <g id="text_40">
    <text style="fill: #245f43; font: 13px 'DejaVu Sans'; text-anchor: middle" x="391.187368" y="466.373613" transform="rotate(-0 391.187368 466.373613)">8.50×</text>
   </g>
   <g id="text_41">
    <text style="fill: #245f43; font: 13px 'DejaVu Sans'; text-anchor: middle" x="486.682105" y="473.037571" transform="rotate(-0 486.682105 473.037571)">7.90×</text>
   </g>
   <g id="text_42">
    <text style="fill: #245f43; font: 700 15px 'DejaVu Sans'; text-anchor: middle" x="582.176842" y="450.893594" transform="rotate(-0 582.176842 450.893594)">9.86×</text>
   </g>
   <g id="line2d_41">
    <path d="M 104.703158 516.308246 
L 200.197895 477.504348 
L 295.692632 481.521645 
L 391.187368 480.077207 
" clip-path="url(#pfa70c985d9)" style="fill: none; stroke: #426ba0; stroke-width: 2.8; stroke-linecap: square"/>
    <defs>
     <path id="md4681f09c9" d="M 0 4 
C 1.060812 4 2.078319 3.578535 2.828427 2.828427 
C 3.578535 2.078319 4 1.060812 4 0 
C 4 -1.060812 3.578535 -2.078319 2.828427 -2.828427 
C 2.078319 -3.578535 1.060812 -4 0 -4 
C -1.060812 -4 -2.078319 -3.578535 -2.828427 -2.828427 
C -3.578535 -2.078319 -4 -1.060812 -4 0 
C -4 1.060812 -3.578535 2.078319 -2.828427 2.828427 
C -2.078319 3.578535 -1.060812 4 0 4 
z
" style="stroke: #f6f7f2; stroke-width: 1.5"/>
    </defs>
    <g clip-path="url(#pfa70c985d9)">
     <use xlink:href="#md4681f09c9" x="104.703158" y="516.308246" style="fill: #426ba0; stroke: #f6f7f2; stroke-width: 1.5"/>
     <use xlink:href="#md4681f09c9" x="200.197895" y="477.504348" style="fill: #426ba0; stroke: #f6f7f2; stroke-width: 1.5"/>
     <use xlink:href="#md4681f09c9" x="295.692632" y="481.521645" style="fill: #426ba0; stroke: #f6f7f2; stroke-width: 1.5"/>
     <use xlink:href="#md4681f09c9" x="391.187368" y="480.077207" style="fill: #426ba0; stroke: #f6f7f2; stroke-width: 1.5"/>
    </g>
   </g>
   <g id="line2d_42">
    <path d="M 486.682105 486.741164 
" clip-path="url(#pfa70c985d9)" style="fill: none; stroke: #2b7f85; stroke-width: 2.8; stroke-linecap: square"/>
    <defs>
     <path id="md5c3249d31" d="M 0 4 
C 1.060812 4 2.078319 3.578535 2.828427 2.828427 
C 3.578535 2.078319 4 1.060812 4 0 
C 4 -1.060812 3.578535 -2.078319 2.828427 -2.828427 
C 2.078319 -3.578535 1.060812 -4 0 -4 
C -1.060812 -4 -2.078319 -3.578535 -2.828427 -2.828427 
C -3.578535 -2.078319 -4 -1.060812 -4 0 
C -4 1.060812 -3.578535 2.078319 -2.828427 2.828427 
C -2.078319 3.578535 -1.060812 4 0 4 
z
" style="stroke: #f6f7f2; stroke-width: 1.5"/>
    </defs>
    <g clip-path="url(#pfa70c985d9)">
     <use xlink:href="#md5c3249d31" x="486.682105" y="486.741164" style="fill: #2b7f85; stroke: #f6f7f2; stroke-width: 1.5"/>
    </g>
   </g>
   <g id="line2d_43">
    <path d="M 582.176842 465.013125 
" clip-path="url(#pfa70c985d9)" style="fill: none; stroke: #245f43; stroke-width: 2.8; stroke-linecap: square"/>
    <defs>
     <path id="mc79a89a42d" d="M 0 4 
C 1.060812 4 2.078319 3.578535 2.828427 2.828427 
C 3.578535 2.078319 4 1.060812 4 0 
C 4 -1.060812 3.578535 -2.078319 2.828427 -2.828427 
C 2.078319 -3.578535 1.060812 -4 0 -4 
C -1.060812 -4 -2.078319 -3.578535 -2.828427 -2.828427 
C -3.578535 -2.078319 -4 -1.060812 -4 0 
C -4 1.060812 -3.578535 2.078319 -2.828427 2.828427 
C -2.078319 3.578535 -1.060812 4 0 4 
z
" style="stroke: #f6f7f2; stroke-width: 1.5"/>
    </defs>
    <g clip-path="url(#pfa70c985d9)">
     <use xlink:href="#mc79a89a42d" x="582.176842" y="465.013125" style="fill: #245f43; stroke: #f6f7f2; stroke-width: 1.5"/>
    </g>
   </g>
  </g>
  <g id="line2d_44">
   <path d="M 71.28 363.888 
L 615.6 363.888 
" style="fill: none; stroke: #dce3da; stroke-width: 1.2; stroke-linecap: square"/>
  </g>
  <g id="text_43">
   <text style="fill: #202d29; font: 700 18px 'DejaVu Sans'; text-anchor: start" x="71.28" y="27.357188" transform="rotate(-0 71.28 27.357188)">Compilation cost across development</text>
  </g>
  <g id="text_44">
   <text style="fill: #586660; font: 12px 'DejaVu Sans'; text-anchor: start" x="71.28" y="50.158125" transform="rotate(-0 71.28 50.158125)">Two measurement scopes · time ÷ TypeScript time · lower is better</text>
  </g>
  <g id="text_45">
   <text style="fill: #202d29; font: 700 14px 'DejaVu Sans'; text-anchor: start" x="71.28" y="86.561812" transform="rotate(-0 71.28 86.561812)">EARLIER · Compiler-source checking</text>
  </g>
  <g id="text_46">
   <text style="fill: #586660; font: 12px 'DejaVu Sans'; text-anchor: start" x="71.28" y="106.246125" transform="rotate(-0 71.28 106.246125)">Process time · no code emission · log scale</text>
  </g>
  <g id="text_47">
   <text style="fill: #586660; font: 11px 'DejaVu Sans'; text-anchor: start" x="71.28" y="323.532" transform="rotate(-0 71.28 323.532)">Source and timing windows evolve; each dot is a separate release snapshot.</text>
  </g>
  <g id="text_48">
   <text style="fill: #245f43; font: 11.5px 'DejaVu Sans'; text-anchor: start" x="71.28" y="342" transform="rotate(-0 71.28 342)">Bend process time: 205.260 s (P8) → 11.156 s (P24)</text>
  </g>
  <g id="text_49">
   <text style="fill: #202d29; font: 700 14px 'DejaVu Sans'; text-anchor: start" x="71.28" y="395.045813" transform="rotate(-0 71.28 395.045813)">RECENT · Checking + JavaScript emission</text>
  </g>
  <g id="text_50">
   <text style="fill: #586660; font: 12px 'DejaVu Sans'; text-anchor: start" x="71.28" y="414.730125" transform="rotate(-0 71.28 414.730125)">Legacy JS request time · separate program cohorts</text>
  </g>
  <g id="text_51">
   <text style="fill: #586660; font: 11px 'DejaVu Sans'; text-anchor: start" x="71.28" y="638.172" transform="rotate(-0 71.28 638.172)">Release checkpoints · commit date and ID</text>
  </g>
  <g id="text_52">
   <text style="fill: #586660; font: 11px 'DejaVu Sans'; text-anchor: start" x="71.28" y="665.532" transform="rotate(-0 71.28 665.532)">Cohort changes break the line. Latest P48 legacy sample; no P53 default measurement.</text>
  </g>
 </g>
 <defs>
  <clipPath id="p5fb471afd1">
   <rect x="71.28" y="119.7" width="544.32" height="164.16"/>
  </clipPath>
  <clipPath id="pfa70c985d9">
   <rect x="71.28" y="434.34" width="544.32" height="140.22"/>
  </clipPath>
 </defs>
</svg>
