<?xml version="1.0" encoding="utf-8" standalone="no"?>
<!DOCTYPE svg PUBLIC "-//W3C//DTD SVG 1.1//EN"
  "http://www.w3.org/Graphics/SVG/1.1/DTD/svg11.dtd">
<svg xmlns:xlink="http://www.w3.org/1999/xlink" width="648pt" height="792pt" viewBox="0 0 648 792" xmlns="http://www.w3.org/2000/svg" version="1.1">
 <title>Conformance</title>
 <metadata>
  <rdf:RDF xmlns:dc="http://purl.org/dc/elements/1.1/" xmlns:cc="http://creativecommons.org/ns#" xmlns:rdf="http://www.w3.org/1999/02/22-rdf-syntax-ns#">
   <cc:Work>
    <dc:type rdf:resource="http://purl.org/dc/dcmitype/StillImage"/>
    <dc:title>Conformance</dc:title>
    <dc:date>2026-10-06</dc:date>
    <dc:description>Exact parse/check agreement across selected recorded milestones. Three disconnected series use distinct pinned upstream targets and denominators. Vertical axis starts at 70 percent. Fresh frontend evidence ends at Phase45, with 3026 of 3026 observations. A separate lower panel shows independent source semantics on the unchanged 96 scenarios: Phase52 B1 passes 95; Phases53, 54 and 55 B1, Phase56 B2, and both Phase58 B1 and B2 pass 96 each. TypeScript remains at 95. B2 is separately qualified, not installed. These distinct suites measure different scopes and must not be combined into one percentage.</dc:description>
    <dc:format>image/svg+xml</dc:format>
    <dc:creator>
     <cc:Agent>
      <dc:title>Bend Progress chart renderer</dc:title>
     </cc:Agent>
    </dc:creator>
   </cc:Work>
  </rdf:RDF>
 </metadata>
 <defs>
  <style type="text/css">*{stroke-linejoin: round; stroke-linecap: butt}</style>
 </defs>
 <g id="figure_1">
  <g id="patch_1">
   <path d="M 0 792 
L 648 792 
L 648 0 
L 0 0 
L 0 792 
z
" style="fill: none"/>
  </g>
  <g id="axes_1">
   <g id="patch_2">
    <path d="M 71.28 300.96 
L 615.6 300.96 
L 615.6 118.8 
L 71.28 118.8 
L 71.28 300.96 
z
" style="fill: none"/>
   </g>
   <g id="matplotlib.axis_1">
    <g id="xtick_1">
     <g id="line2d_1"/>
     <g id="text_1">
      <text style="fill: #586660; font: 13px 'DejaVu Sans'; text-anchor: middle" x="83.650909" y="319.837969" transform="rotate(-0 83.650909 319.837969)">P3</text>
     </g>
    </g>
    <g id="xtick_2">
     <g id="line2d_2"/>
     <g id="text_2">
      <text style="fill: #586660; font: 13px 'DejaVu Sans'; text-anchor: middle" x="145.505455" y="319.837969" transform="rotate(-0 145.505455 319.837969)">P8</text>
     </g>
    </g>
    <g id="xtick_3">
     <g id="line2d_3"/>
     <g id="text_3">
      <text style="fill: #586660; font: 13px 'DejaVu Sans'; text-anchor: middle" x="244.472727" y="319.837969" transform="rotate(-0 244.472727 319.837969)">P16</text>
     </g>
    </g>
    <g id="xtick_4">
     <g id="line2d_4"/>
     <g id="text_4">
      <text style="fill: #586660; font: 13px 'DejaVu Sans'; text-anchor: middle" x="318.698182" y="319.837969" transform="rotate(-0 318.698182 319.837969)">P22</text>
     </g>
    </g>
    <g id="xtick_5">
     <g id="line2d_5"/>
     <g id="text_5">
      <text style="fill: #586660; font: 13px 'DejaVu Sans'; text-anchor: middle" x="392.923636" y="319.837969" transform="rotate(-0 392.923636 319.837969)">P28</text>
     </g>
    </g>
    <g id="xtick_6">
     <g id="line2d_6"/>
     <g id="text_6">
      <text style="fill: #586660; font: 13px 'DejaVu Sans'; text-anchor: middle" x="491.890909" y="319.837969" transform="rotate(-0 491.890909 319.837969)">P36</text>
     </g>
    </g>
    <g id="xtick_7">
     <g id="line2d_7"/>
     <g id="text_7">
      <text style="fill: #586660; font: 13px 'DejaVu Sans'; text-anchor: middle" x="603.229091" y="319.837969" transform="rotate(-0 603.229091 319.837969)">P45</text>
     </g>
    </g>
    <g id="text_8">
     <text style="fill: #586660; font: 13px 'DejaVu Sans'; text-anchor: middle" x="343.44" y="344.419531" transform="rotate(-0 343.44 344.419531)">Development phase</text>
    </g>
   </g>
   <g id="matplotlib.axis_2">
    <g id="ytick_1">
     <g id="line2d_8">
      <path d="M 71.28 300.96 
L 615.6 300.96 
" clip-path="url(#peb8fd75bb2)" style="fill: none; stroke: #dce3da; stroke-width: 0.8; stroke-linecap: square"/>
     </g>
     <g id="line2d_9"/>
     <g id="text_9">
      <text style="fill: #586660; font: 13px 'DejaVu Sans'; text-anchor: end" x="62.28" y="305.898984" transform="rotate(-0 62.28 305.898984)">70%</text>
     </g>
    </g>
    <g id="ytick_2">
     <g id="line2d_10">
      <path d="M 71.28 247.383529 
L 615.6 247.383529 
" clip-path="url(#peb8fd75bb2)" style="fill: none; stroke: #dce3da; stroke-width: 0.8; stroke-linecap: square"/>
     </g>
     <g id="line2d_11"/>
     <g id="text_10">
      <text style="fill: #586660; font: 13px 'DejaVu Sans'; text-anchor: end" x="62.28" y="252.322514" transform="rotate(-0 62.28 252.322514)">80%</text>
     </g>
    </g>
    <g id="ytick_3">
     <g id="line2d_12">
      <path d="M 71.28 193.807059 
L 615.6 193.807059 
" clip-path="url(#peb8fd75bb2)" style="fill: none; stroke: #dce3da; stroke-width: 0.8; stroke-linecap: square"/>
     </g>
     <g id="line2d_13"/>
     <g id="text_11">
      <text style="fill: #586660; font: 13px 'DejaVu Sans'; text-anchor: end" x="62.28" y="198.746043" transform="rotate(-0 62.28 198.746043)">90%</text>
     </g>
    </g>
    <g id="ytick_4">
     <g id="line2d_14">
      <path d="M 71.28 140.230588 
L 615.6 140.230588 
" clip-path="url(#peb8fd75bb2)" style="fill: none; stroke: #dce3da; stroke-width: 0.8; stroke-linecap: square"/>
     </g>
     <g id="line2d_15"/>
     <g id="text_12">
      <text style="fill: #586660; font: 13px 'DejaVu Sans'; text-anchor: end" x="62.28" y="145.169573" transform="rotate(-0 62.28 145.169573)">100%</text>
     </g>
    </g>
   </g>
   <g id="line2d_16">
    <path d="M 139.32 300.96 
L 139.32 118.8 
" clip-path="url(#peb8fd75bb2)" style="fill: none; stroke-dasharray: 4.5,6; stroke-dashoffset: 0; stroke: #dce3da; stroke-width: 1.5"/>
   </g>
   <g id="line2d_17">
    <path d="M 324.883636 300.96 
L 324.883636 118.8 
" clip-path="url(#peb8fd75bb2)" style="fill: none; stroke-dasharray: 4.5,6; stroke-dashoffset: 0; stroke: #dce3da; stroke-width: 1.5"/>
   </g>
   <g id="line2d_18">
    <path d="M 71.28 140.230588 
L 615.6 140.230588 
" clip-path="url(#peb8fd75bb2)" style="fill: none; stroke: #245f43; stroke-opacity: 0.32; stroke-linecap: square"/>
   </g>
   <g id="line2d_19">
    <path d="M 83.650909 249.094244 
L 108.392727 226.543915 
L 133.134545 226.543915 
" clip-path="url(#peb8fd75bb2)" style="fill: none; stroke: #426ba0; stroke-width: 2.8; stroke-linecap: square"/>
    <defs>
     <path id="m5fb6365b81" d="M 0 3 
C 0.795609 3 1.55874 2.683901 2.12132 2.12132 
C 2.683901 1.55874 3 0.795609 3 0 
C 3 -0.795609 2.683901 -1.55874 2.12132 -2.12132 
C 1.55874 -2.683901 0.795609 -3 0 -3 
C -0.795609 -3 -1.55874 -2.683901 -2.12132 -2.12132 
C -2.683901 -1.55874 -3 -0.795609 -3 0 
C -3 0.795609 -2.683901 1.55874 -2.12132 2.12132 
C -1.55874 2.683901 -0.795609 3 0 3 
z
" style="stroke: #f6f7f2; stroke-width: 1.2"/>
    </defs>
    <g clip-path="url(#peb8fd75bb2)">
     <use xlink:href="#m5fb6365b81" x="83.650909" y="249.094244" style="fill: #426ba0; stroke: #f6f7f2; stroke-width: 1.2"/>
     <use xlink:href="#m5fb6365b81" x="108.392727" y="226.543915" style="fill: #426ba0; stroke: #f6f7f2; stroke-width: 1.2"/>
     <use xlink:href="#m5fb6365b81" x="133.134545" y="226.543915" style="fill: #426ba0; stroke: #f6f7f2; stroke-width: 1.2"/>
    </g>
   </g>
   <g id="line2d_20">
    <path d="M 145.505455 271.489365 
L 157.876364 270.952885 
L 182.618182 270.774058 
L 194.989091 270.774058 
L 219.730909 248.063071 
L 232.101818 222.31203 
L 244.472727 140.588242 
L 318.698182 140.230588 
" clip-path="url(#peb8fd75bb2)" style="fill: none; stroke: #2b7f85; stroke-width: 2.8; stroke-linecap: square"/>
    <defs>
     <path id="md9a1b84a2e" d="M 0 3 
C 0.795609 3 1.55874 2.683901 2.12132 2.12132 
C 2.683901 1.55874 3 0.795609 3 0 
C 3 -0.795609 2.683901 -1.55874 2.12132 -2.12132 
C 1.55874 -2.683901 0.795609 -3 0 -3 
C -0.795609 -3 -1.55874 -2.683901 -2.12132 -2.12132 
C -2.683901 -1.55874 -3 -0.795609 -3 0 
C -3 0.795609 -2.683901 1.55874 -2.12132 2.12132 
C -1.55874 2.683901 -0.795609 3 0 3 
z
" style="stroke: #f6f7f2; stroke-width: 1.2"/>
    </defs>
    <g clip-path="url(#peb8fd75bb2)">
     <use xlink:href="#md9a1b84a2e" x="145.505455" y="271.489365" style="fill: #2b7f85; stroke: #f6f7f2; stroke-width: 1.2"/>
     <use xlink:href="#md9a1b84a2e" x="157.876364" y="270.952885" style="fill: #2b7f85; stroke: #f6f7f2; stroke-width: 1.2"/>
     <use xlink:href="#md9a1b84a2e" x="182.618182" y="270.774058" style="fill: #2b7f85; stroke: #f6f7f2; stroke-width: 1.2"/>
     <use xlink:href="#md9a1b84a2e" x="194.989091" y="270.774058" style="fill: #2b7f85; stroke: #f6f7f2; stroke-width: 1.2"/>
     <use xlink:href="#md9a1b84a2e" x="219.730909" y="248.063071" style="fill: #2b7f85; stroke: #f6f7f2; stroke-width: 1.2"/>
     <use xlink:href="#md9a1b84a2e" x="232.101818" y="222.31203" style="fill: #2b7f85; stroke: #f6f7f2; stroke-width: 1.2"/>
     <use xlink:href="#md9a1b84a2e" x="244.472727" y="140.588242" style="fill: #2b7f85; stroke: #f6f7f2; stroke-width: 1.2"/>
     <use xlink:href="#md9a1b84a2e" x="318.698182" y="140.230588" style="fill: #2b7f85; stroke: #f6f7f2; stroke-width: 1.2"/>
    </g>
   </g>
   <g id="line2d_21">
    <path d="M 331.069091 140.230588 
L 343.44 140.230588 
L 491.890909 140.230588 
L 603.229091 140.230588 
" clip-path="url(#peb8fd75bb2)" style="fill: none; stroke: #245f43; stroke-width: 2.8; stroke-linecap: square"/>
    <defs>
     <path id="m9e05c67d77" d="M 0 3 
C 0.795609 3 1.55874 2.683901 2.12132 2.12132 
C 2.683901 1.55874 3 0.795609 3 0 
C 3 -0.795609 2.683901 -1.55874 2.12132 -2.12132 
C 1.55874 -2.683901 0.795609 -3 0 -3 
C -0.795609 -3 -1.55874 -2.683901 -2.12132 -2.12132 
C -2.683901 -1.55874 -3 -0.795609 -3 0 
C -3 0.795609 -2.683901 1.55874 -2.12132 2.12132 
C -1.55874 2.683901 -0.795609 3 0 3 
z
" style="stroke: #f6f7f2; stroke-width: 1.2"/>
    </defs>
    <g clip-path="url(#peb8fd75bb2)">
     <use xlink:href="#m9e05c67d77" x="331.069091" y="140.230588" style="fill: #245f43; stroke: #f6f7f2; stroke-width: 1.2"/>
     <use xlink:href="#m9e05c67d77" x="343.44" y="140.230588" style="fill: #245f43; stroke: #f6f7f2; stroke-width: 1.2"/>
     <use xlink:href="#m9e05c67d77" x="491.890909" y="140.230588" style="fill: #245f43; stroke: #f6f7f2; stroke-width: 1.2"/>
     <use xlink:href="#m9e05c67d77" x="603.229091" y="140.230588" style="fill: #245f43; stroke: #f6f7f2; stroke-width: 1.2"/>
    </g>
   </g>
   <g id="text_13">
    <text style="fill: #426ba0; font: 13px 'DejaVu Sans'; text-anchor: start" x="83.650909" y="273.094244" transform="rotate(-0 83.650909 273.094244)">79.7%</text>
   </g>
   <g id="text_14">
    <text style="fill: #2b7f85; font: 12px 'DejaVu Sans'; text-anchor: start" x="150.505455" y="298.489365" transform="rotate(-0 150.505455 298.489365)">New target</text>
   </g>
   <g id="text_15">
    <text style="fill: #2b7f85; font: 12px 'DejaVu Sans'; text-anchor: middle" x="230.472727" y="169.588242" transform="rotate(-0 230.472727 169.588242)">2 differences</text>
   </g>
   <g id="text_16">
    <text style="fill: #245f43; font: 700 14px 'DejaVu Sans'; text-anchor: end" x="603.229091" y="169.230588" transform="rotate(-0 603.229091 169.230588)">3,026 / 3,026</text>
   </g>
  </g>
  <g id="axes_2">
   <g id="patch_3">
    <path d="M 162 673.2 
L 615.6 673.2 
L 615.6 443.52 
L 162 443.52 
L 162 673.2 
z
" style="fill: none"/>
   </g>
   <g id="matplotlib.axis_3">
    <g id="xtick_8">
     <g id="line2d_22">
      <path d="M 162 673.2 
L 162 443.52 
" clip-path="url(#p4301567896)" style="fill: none; stroke: #dce3da; stroke-width: 0.8; stroke-linecap: square"/>
     </g>
     <g id="line2d_23"/>
     <g id="text_17">
      <text style="fill: #586660; font: 13px 'DejaVu Sans'; text-anchor: middle" x="162" y="692.077969" transform="rotate(-0 162 692.077969)">0</text>
     </g>
    </g>
    <g id="xtick_9">
     <g id="line2d_24">
      <path d="M 273.176471 673.2 
L 273.176471 443.52 
" clip-path="url(#p4301567896)" style="fill: none; stroke: #dce3da; stroke-width: 0.8; stroke-linecap: square"/>
     </g>
     <g id="line2d_25"/>
     <g id="text_18">
      <text style="fill: #586660; font: 13px 'DejaVu Sans'; text-anchor: middle" x="273.176471" y="692.077969" transform="rotate(-0 273.176471 692.077969)">24</text>
     </g>
    </g>
    <g id="xtick_10">
     <g id="line2d_26">
      <path d="M 384.352941 673.2 
L 384.352941 443.52 
" clip-path="url(#p4301567896)" style="fill: none; stroke: #dce3da; stroke-width: 0.8; stroke-linecap: square"/>
     </g>
     <g id="line2d_27"/>
     <g id="text_19">
      <text style="fill: #586660; font: 13px 'DejaVu Sans'; text-anchor: middle" x="384.352941" y="692.077969" transform="rotate(-0 384.352941 692.077969)">48</text>
     </g>
    </g>
    <g id="xtick_11">
     <g id="line2d_28">
      <path d="M 495.529412 673.2 
L 495.529412 443.52 
" clip-path="url(#p4301567896)" style="fill: none; stroke: #dce3da; stroke-width: 0.8; stroke-linecap: square"/>
     </g>
     <g id="line2d_29"/>
     <g id="text_20">
      <text style="fill: #586660; font: 13px 'DejaVu Sans'; text-anchor: middle" x="495.529412" y="692.077969" transform="rotate(-0 495.529412 692.077969)">72</text>
     </g>
    </g>
    <g id="xtick_12">
     <g id="line2d_30">
      <path d="M 606.705882 673.2 
L 606.705882 443.52 
" clip-path="url(#p4301567896)" style="fill: none; stroke: #dce3da; stroke-width: 0.8; stroke-linecap: square"/>
     </g>
     <g id="line2d_31"/>
     <g id="text_21">
      <text style="fill: #586660; font: 13px 'DejaVu Sans'; text-anchor: middle" x="606.705882" y="692.077969" transform="rotate(-0 606.705882 692.077969)">96</text>
     </g>
    </g>
    <g id="text_22">
     <text style="fill: #586660; font: 12px 'DejaVu Sans'; text-anchor: middle" x="388.8" y="714.899688" transform="rotate(-0 388.8 714.899688)">Passing independently specified scenarios</text>
    </g>
   </g>
   <g id="matplotlib.axis_4">
    <g id="ytick_5">
     <g id="line2d_32"/>
     <g id="text_23">
      <text style="fill: #586660; font: 12px 'DejaVu Sans'; text-anchor: end" x="153" y="468.787915" transform="rotate(-0 153 468.787915)">P52 · B1</text>
     </g>
    </g>
    <g id="ytick_6">
     <g id="line2d_33"/>
     <g id="text_24">
      <text style="fill: #586660; font: 12px 'DejaVu Sans'; text-anchor: end" x="153" y="506.440374" transform="rotate(-0 153 506.440374)">P53 · B1</text>
     </g>
    </g>
    <g id="ytick_7">
     <g id="line2d_34"/>
     <g id="text_25">
      <text style="fill: #586660; font: 12px 'DejaVu Sans'; text-anchor: end" x="153" y="544.092833" transform="rotate(-0 153 544.092833)">P54 · B1</text>
     </g>
    </g>
    <g id="ytick_8">
     <g id="line2d_35"/>
     <g id="text_26">
      <text style="fill: #586660; font: 12px 'DejaVu Sans'; text-anchor: end" x="153" y="581.745292" transform="rotate(-0 153 581.745292)">P55 · B1</text>
     </g>
    </g>
    <g id="ytick_9">
     <g id="line2d_36"/>
     <g id="text_27">
      <text style="fill: #586660; font: 12px 'DejaVu Sans'; text-anchor: end" x="153" y="619.397751" transform="rotate(-0 153 619.397751)">P56 · B2</text>
     </g>
    </g>
    <g id="ytick_10">
     <g id="line2d_37"/>
     <g id="text_28">
      <text style="fill: #586660; font: 12px 'DejaVu Sans'; text-anchor: end" x="153" y="657.05021" transform="rotate(-0 153 657.05021)">P58 · B1 + B2</text>
     </g>
    </g>
   </g>
   <g id="patch_4">
    <path d="M 162 455.192262 
L 606.705882 455.192262 
L 606.705882 473.265443 
L 162 473.265443 
z
" clip-path="url(#p4301567896)" style="fill: #a3692d"/>
   </g>
   <g id="patch_5">
    <path d="M 162 492.844721 
L 606.705882 492.844721 
L 606.705882 510.917902 
L 162 510.917902 
z
" clip-path="url(#p4301567896)" style="fill: #a3692d"/>
   </g>
   <g id="patch_6">
    <path d="M 162 530.49718 
L 606.705882 530.49718 
L 606.705882 548.570361 
L 162 548.570361 
z
" clip-path="url(#p4301567896)" style="fill: #a3692d"/>
   </g>
   <g id="patch_7">
    <path d="M 162 568.149639 
L 606.705882 568.149639 
L 606.705882 586.22282 
L 162 586.22282 
z
" clip-path="url(#p4301567896)" style="fill: #a3692d"/>
   </g>
   <g id="patch_8">
    <path d="M 162 605.802098 
L 606.705882 605.802098 
L 606.705882 623.875279 
L 162 623.875279 
z
" clip-path="url(#p4301567896)" style="fill: #a3692d"/>
   </g>
   <g id="patch_9">
    <path d="M 162 643.454557 
L 606.705882 643.454557 
L 606.705882 661.527738 
L 162 661.527738 
z
" clip-path="url(#p4301567896)" style="fill: #a3692d"/>
   </g>
   <g id="patch_10">
    <path d="M 162 455.192262 
L 602.073529 455.192262 
L 602.073529 473.265443 
L 162 473.265443 
z
" clip-path="url(#p4301567896)" style="fill: #2b7f85"/>
   </g>
   <g id="patch_11">
    <path d="M 162 492.844721 
L 606.705882 492.844721 
L 606.705882 510.917902 
L 162 510.917902 
z
" clip-path="url(#p4301567896)" style="fill: #245f43"/>
   </g>
   <g id="patch_12">
    <path d="M 162 530.49718 
L 606.705882 530.49718 
L 606.705882 548.570361 
L 162 548.570361 
z
" clip-path="url(#p4301567896)" style="fill: #245f43"/>
   </g>
   <g id="patch_13">
    <path d="M 162 568.149639 
L 606.705882 568.149639 
L 606.705882 586.22282 
L 162 586.22282 
z
" clip-path="url(#p4301567896)" style="fill: #245f43"/>
   </g>
   <g id="patch_14">
    <path d="M 162 605.802098 
L 606.705882 605.802098 
L 606.705882 623.875279 
L 162 623.875279 
z
" clip-path="url(#p4301567896)" style="fill: #245f43"/>
   </g>
   <g id="patch_15">
    <path d="M 162 643.454557 
L 606.705882 643.454557 
L 606.705882 661.527738 
L 162 661.527738 
z
" clip-path="url(#p4301567896)" style="fill: #245f43"/>
   </g>
   <g id="text_29">
    <text style="fill: #f6f7f2; font: 700 15px 'DejaVu Sans'; text-anchor: end" x="588.176471" y="468.367915" transform="rotate(-0 588.176471 468.367915)">95 / 96</text>
   </g>
   <g id="text_30">
    <text style="fill: #f6f7f2; font: 700 15px 'DejaVu Sans'; text-anchor: end" x="592.808824" y="506.020374" transform="rotate(-0 592.808824 506.020374)">96 / 96</text>
   </g>
   <g id="text_31">
    <text style="fill: #f6f7f2; font: 700 15px 'DejaVu Sans'; text-anchor: end" x="592.808824" y="543.672833" transform="rotate(-0 592.808824 543.672833)">96 / 96</text>
   </g>
   <g id="text_32">
    <text style="fill: #f6f7f2; font: 700 15px 'DejaVu Sans'; text-anchor: end" x="592.808824" y="581.325292" transform="rotate(-0 592.808824 581.325292)">96 / 96</text>
   </g>
   <g id="text_33">
    <text style="fill: #f6f7f2; font: 700 15px 'DejaVu Sans'; text-anchor: end" x="592.808824" y="618.977751" transform="rotate(-0 592.808824 618.977751)">96 / 96</text>
   </g>
   <g id="text_34">
    <text style="fill: #f6f7f2; font: 700 15px 'DejaVu Sans'; text-anchor: end" x="592.808824" y="656.63021" transform="rotate(-0 592.808824 656.63021)">96 / 96</text>
   </g>
  </g>
  <g id="line2d_38">
   <path d="M 71.28 380.16 
L 615.6 380.16 
" style="fill: none; stroke: #dce3da; stroke-width: 1.2; stroke-linecap: square"/>
  </g>
  <g id="text_35">
   <text style="fill: #202d29; font: 700 18px 'DejaVu Sans'; text-anchor: start" x="71.28" y="31.893187" transform="rotate(-0 71.28 31.893187)">Conformance · two distinct test suites</text>
  </g>
  <g id="text_36">
   <text style="fill: #202d29; font: 700 14px 'DejaVu Sans'; text-anchor: start" x="71.28" y="62.117812" transform="rotate(-0 71.28 62.117812)">HISTORICAL · Exact frontend agreement</text>
  </g>
  <g id="text_37">
   <text style="fill: #586660; font: 12px 'DejaVu Sans'; text-anchor: start" x="71.28" y="85.942125" transform="rotate(-0 71.28 85.942125)">Last full rerun: P45 · 3,026 main observations · axis starts at 70%</text>
  </g>
  <g id="text_38">
   <text style="fill: #426ba0; font: 11px 'DejaVu Sans'; text-anchor: start" x="71.28" y="362.736" transform="rotate(-0 71.28 362.736)">● 6018e28  (2,756)</text>
  </g>
  <g id="text_39">
   <text style="fill: #2b7f85; font: 11px 'DejaVu Sans'; text-anchor: start" x="259.2" y="362.736" transform="rotate(-0 259.2 362.736)">● b2111cf  (2,996)</text>
  </g>
  <g id="text_40">
   <text style="fill: #245f43; font: 11px 'DejaVu Sans'; text-anchor: start" x="447.12" y="362.736" transform="rotate(-0 447.12 362.736)">● 0187512  (3,026)</text>
  </g>
  <g id="text_41">
   <text style="fill: #202d29; font: 700 14px 'DejaVu Sans'; text-anchor: start" x="71.28" y="409.013812" transform="rotate(-0 71.28 409.013812)">INDEPENDENT · Runtime semantics</text>
  </g>
  <g id="text_42">
   <text style="fill: #586660; font: 11.5px 'DejaVu Sans'; text-anchor: start" x="71.28" y="430.874203" transform="rotate(-0 71.28 430.874203)">Same 96 source-oracle scenarios · 29 fixtures · each image tested separately</text>
  </g>
  <g id="text_43">
   <text style="fill: #245f43; font: 10.5px 'DejaVu Sans'; text-anchor: start" x="71.28" y="742.104" transform="rotate(-0 71.28 742.104)">P53 repaired one NaN case. Both P58 images pass 96/96 each; TypeScript stays 95/96.</text>
  </g>
  <g id="text_44">
   <text style="fill: #586660; font: 10.5px 'DejaVu Sans'; text-anchor: start" x="71.28" y="765.864" transform="rotate(-0 71.28 765.864)">B1 = installed checked compiler · B2 = separately self-emitted compiler</text>
  </g>
 </g>
 <defs>
  <clipPath id="peb8fd75bb2">
   <rect x="71.28" y="118.8" width="544.32" height="182.16"/>
  </clipPath>
  <clipPath id="p4301567896">
   <rect x="162" y="443.52" width="453.6" height="229.68"/>
  </clipPath>
 </defs>
</svg>
